<svg xmlns="http://www.w3.org/2000/svg" viewBox="0 0 460 131"><defs><style>.logo-circle{fill:#ef4b00}</style></defs><g class="logo-icon"><path class="logo-circle logo-circle-sm" d="M49.8 68.8a9.2 9.2 0 1018.4 0 9.2 9.2 0 10-18.4 0"/><path class="logo-circle logo-circle-md" d="M59 91.6c-12.6 0-22.8-10.2-22.8-22.8S46.5 45.9 59 45.9c12.6 0 22.8 10.2 22.8 22.8S71.6 91.6 59 91.6zm0-38.7c-8.8 0-15.9 7.1-15.9 15.9S50.2 84.7 59 84.7s15.9-7.1 15.9-15.9S67.8 52.9 59 52.9z"/><path class="logo-circle logo-circle-lg" d="M59 105.2c-20.1 0-36.4-16.3-36.4-36.4S39 32.3 59 32.3s36.4 16.3 36.4 36.4-16.3 36.5-36.4 36.5zm0-65.9c-16.3 0-29.5 13.2-29.5 29.5S42.8 98.2 59 98.2c16.3 0 29.5-13.2 29.5-29.5S75.3 39.3 59 39.3z"/><g class="logo-arrow-wrapper"><path d="M60.3 70.2L38.1 20.4l-7.6 12.4 2.7 10.1-10.9-1.6-12.3 8" fill="#00359e"/><path d="M60.3 70.2l-16-15.9-11.1-11.4-10.9-1.6-12.3 8" fill="#002259"/></g></g><path d="M141.6 94.2h-11.8V32.5h11.8v19.7c4.1-2.1 7.7-3.2 10.9-3.2 5.9 0 9.9 1.7 12.2 5.2 2.2 3.5 3.3 8.8 3.3 16v23.9h-11.8V70.6c0-3.7-.4-6.4-1.3-8.2-.9-1.8-2.6-2.7-5.3-2.7-2.3 0-4.6.4-6.9 1.1l-1.1.4v33zm36.9-49.7v-12h11.8v12h-11.8zm0 49.7V50.1h11.8v44.1h-11.8zm22.7 0V50.1h11.7v4.7c4.9-2.9 9.6-4.8 14.1-5.7V61c-4.8 1-8.8 2-12.3 3.1l-1.8.6v29.5h-11.7zM245.9 83c1.4 1.2 3.4 1.8 5.9 1.8 5.5 0 10.3-.2 14.6-.5l2.5-.3.2 8.7c-6.8 1.6-12.9 2.5-18.3 2.5-6.6 0-11.5-1.8-14.5-5.3s-4.5-9.3-4.5-17.2c0-15.8 6.5-23.7 19.5-23.7 12.8 0 19.2 6.6 19.2 19.9l-.9 8.2h-25.9c.1 2.8.8 4.7 2.2 5.9zm13-14.8c0-3.5-.6-6-1.7-7.4s-3.1-2.1-5.9-2.1c-2.8 0-4.8.7-5.9 2.2-1.1 1.4-1.7 3.9-1.8 7.3h15.3zm20.6 26V32.5h11.8v61.7h-11.8zm25.6-39.1c3.1-4 8.3-6 15.6-6 7.3 0 12.5 2 15.6 6s4.7 9.7 4.7 17c0 15.5-6.8 23.2-20.3 23.2s-20.3-7.7-20.3-23.2c0-7.3 1.6-13 4.7-17zm9.1 26.9c1.2 2.1 3.4 3.2 6.5 3.2s5.3-1.1 6.5-3.2 1.8-5.4 1.8-10c0-4.5-.6-7.8-1.8-9.9-1.2-2.1-3.4-3.1-6.5-3.1s-5.3 1-6.5 3.1-1.8 5.3-1.8 9.9c0 4.6.6 7.9 1.8 10zm75.3 17.7c0 5-1.9 8.7-5.8 11.1s-9.1 3.6-15.7 3.6-11.7-.9-15.2-2.6c-3.6-1.8-5.3-5-5.3-9.6 0-3.7 2.1-7.2 6.3-10.5-2.2-1.5-3.3-3.7-3.3-6.7 0-1.2.9-3.1 2.6-5.8l.8-1.2c-4-2.9-6-7.1-6-12.7s1.7-9.7 5.1-12.2 7.9-3.8 13.4-3.8c2.5 0 5 .3 7.5.9l1.4.3 14.2-.4v9.4l-6.6-.5c1.3 2 1.9 4 1.9 6 0 5.9-1.5 9.9-4.5 12.2-3 2.2-7.7 3.3-14.1 3.3-1.4 0-2.6-.1-3.6-.4-.6 1.5-.9 2.8-.9 3.7 0 1 .5 1.6 1.5 2s3.3.6 7.1.6c7.4.1 12.5 1 15.2 3 2.7 1.8 4 5.3 4 10.3zm-30.4 1.3c0 2.5 3.1 3.8 9.3 3.8 6.2 0 9.3-1.5 9.3-4.4 0-1.6-.5-2.6-1.6-3s-3.3-.7-6.7-.7l-7.9-.6c-1.7 1.4-2.4 3.1-2.4 4.9zm.7-36.1c0 4.3 2.2 6.5 6.7 6.5s6.7-2.2 6.7-6.5-2.2-6.5-6.7-6.5-6.7 2.2-6.7 6.5zm36.9-20.4v-12h11.8v12h-11.8zm0 49.7V50.1h11.8v44.1h-11.8zm39.2-45.1c3.1 0 7 .5 11.7 1.4l2.4.5-.4 9.3c-4.6-.5-8.1-.7-10.3-.7-4.1 0-6.7.9-8.1 2.6-1.3 1.7-2 5-2 9.8s.7 8.1 2 9.9 4 2.7 8.2 2.7l10.2-.7.4 9.4c-6.3 1.2-11.1 1.9-14.4 1.9-6.5 0-11.2-1.8-14.1-5.5s-4.3-9.6-4.3-17.7 1.5-14 4.4-17.6c3-3.5 7.8-5.3 14.3-5.3z" fill="#002259"/></svg>