<svg xmlns="http://www.w3.org/2000/svg" width="13" height="16" viewBox="0 0 13 16">
    <path fill="#011C62" fill-rule="evenodd" d="M4.318 14.933h.027c.13.621.689 1.066 1.337 1.067h1.636c.648 0 1.206-.446 1.336-1.067h.028a.276.276 0 0 0 .193-.078.264.264 0 0 0 .08-.188V11.22a5.902 5.902 0 0 0 3.37-3.944 5.765 5.765 0 0 0-1.1-5.025A6.051 6.051 0 0 0 6.5 0a6.05 6.05 0 0 0-4.725 2.25 5.765 5.765 0 0 0-1.1 5.026 5.902 5.902 0 0 0 3.37 3.944v3.447c0 .07.03.138.08.188.051.05.12.078.193.078zm3 .534H5.682a.816.816 0 0 1-.768-.534h3.172a.816.816 0 0 1-.768.534zM8.41 14.4H4.591v-.533h3.273v-.534H4.59V12.8h3.818v1.6zM6.061 7.755a1.016 1.016 0 0 1-.131-.115.985.985 0 0 0-.306-.232.283.283 0 0 0-.173-.012l-.426.107-.199-.194.11-.418h-.001a.256.256 0 0 0-.013-.168l-.158-.373a.273.273 0 0 0-.112-.128l-.38-.219V5.73l.379-.22v.001c.051-.03.09-.075.114-.128l.158-.373a.254.254 0 0 0 .012-.168l-.11-.418.199-.194.427.106c.058.015.118.011.173-.012l.382-.154c.054-.022.1-.061.13-.111l.224-.37h.28l.224.37c.03.05.076.089.131.11l.382.155a.278.278 0 0 0 .172.012l.427-.106.199.194-.11.418a.263.263 0 0 0 .013.168l.158.373a.27.27 0 0 0 .113.127l.38.22v.274l-.38.219a.27.27 0 0 0-.113.127l-.158.374a.265.265 0 0 0-.013.168l.11.418-.199.194-.427-.106a.278.278 0 0 0-.172.012.994.994 0 0 0-.307.23 1.09 1.09 0 0 1-.128.115.266.266 0 0 0-.17.245v4.267h-.545V8a.296.296 0 0 0-.166-.245zM1.045 5.867c0-1.295.482-2.544 1.355-3.518A5.492 5.492 0 0 1 5.79.58a5.55 5.55 0 0 1 3.743.856 5.336 5.336 0 0 1 2.237 3.057c.34 1.251.205 2.58-.383 3.74a5.403 5.403 0 0 1-2.81 2.566.266.266 0 0 0-.169.246v1.223H7.32V8.143c.048-.04.093-.084.137-.127.021-.021.05-.05.076-.073l.458.115a.278.278 0 0 0 .262-.07l.418-.408a.263.263 0 0 0 .071-.255l-.125-.48.088-.209.435-.251a.265.265 0 0 0 .133-.23v-.577a.265.265 0 0 0-.133-.23l-.435-.25-.088-.21.125-.48a.263.263 0 0 0-.071-.254l-.42-.41h.002a.276.276 0 0 0-.262-.069l-.49.123-.213-.087-.257-.427a.275.275 0 0 0-.236-.13h-.591a.275.275 0 0 0-.235.13l-.257.427-.213.087-.49-.124h-.001a.274.274 0 0 0-.26.07l-.42.41a.262.262 0 0 0-.07.254l.125.48-.088.21-.436.25a.266.266 0 0 0-.135.23v.578c0 .094.052.182.135.23l.436.251.088.209-.125.48a.26.26 0 0 0 .07.254l.42.41a.277.277 0 0 0 .26.069l.458-.115c.027.024.054.054.076.073.045.043.09.087.137.127v4.123H4.591v-1.223a.266.266 0 0 0-.169-.247c-1-.4-1.856-1.083-2.457-1.961a5.234 5.234 0 0 1-.92-2.97v.001z"/>
</svg>
