<?xml version="1.0" standalone="no"?>
<!DOCTYPE svg PUBLIC "-//W3C//DTD SVG 20010904//EN"
 "http://www.w3.org/TR/2001/REC-SVG-20010904/DTD/svg10.dtd">
<svg version="1.0" xmlns="http://www.w3.org/2000/svg"
 width="700.000000pt" height="700.000000pt" viewBox="0 0 700.000000 700.000000"
 preserveAspectRatio="xMidYMid meet">
<metadata>
Created by potrace 1.11, written by Peter Selinger 2001-2013
</metadata>
<g transform="translate(0.000000,700.000000) scale(0.100000,-0.100000)"
fill="#000000" stroke="none">
<path d="M1987 6480 l-308 -509 107 -411 c58 -226 104 -413 102 -415 -1 -1
-59 6 -128 16 -69 10 -268 39 -442 64 l-317 46 -499 -328 c-275 -180 -497
-331 -493 -335 3 -3 278 -120 611 -258 333 -139 607 -254 609 -256 2 -1 -11
-42 -28 -91 -115 -317 -181 -756 -167 -1103 20 -452 116 -829 316 -1235 375
-761 1039 -1314 1863 -1551 256 -73 511 -108 802 -108 441 0 822 82 1229 265
207 93 458 249 636 392 107 88 319 296 412 407 536 637 783 1474 682 2305
-108 885 -604 1680 -1348 2160 -409 264 -862 418 -1366 466 -152 14 -477 6
-640 -16 -215 -29 -481 -98 -670 -172 -47 -18 -90 -33 -96 -33 -6 0 -75 143
-152 318 -77 174 -198 446 -267 605 -70 158 -130 287 -134 287 -3 -1 -144
-230 -314 -510z m2313 -1055 c975 -121 1785 -820 2044 -1767 67 -244 80 -352
81 -643 0 -204 -4 -285 -18 -375 -171 -1080 -1008 -1903 -2087 -2052 -141 -19
-497 -16 -645 6 -954 141 -1735 832 -1990 1760 -67 247 -80 349 -80 651 0 288
8 362 61 580 33 133 83 285 95 285 10 0 490 -199 498 -206 2 -2 -10 -50 -28
-107 -91 -290 -106 -635 -41 -946 43 -202 145 -451 257 -626 119 -184 318
-393 493 -517 198 -141 467 -255 725 -310 97 -20 137 -23 350 -23 213 0 253 3
350 23 587 124 1054 481 1319 1009 142 283 204 576 193 913 -7 199 -33 347
-93 528 -327 979 -1380 1507 -2357 1181 -66 -21 -122 -37 -126 -34 -10 6 -225
494 -220 499 15 13 252 92 349 116 112 27 276 55 365 63 115 10 393 6 505 -8z
m1 -1139 c264 -60 503 -202 682 -404 162 -182 260 -379 313 -632 25 -118 25
-372 1 -490 -113 -534 -504 -930 -1029 -1041 -144 -31 -361 -31 -505 0 -528
112 -924 515 -1030 1048 -21 106 -23 355 -4 453 20 105 52 220 62 220 12 0
492 -200 501 -208 3 -4 -1 -38 -9 -77 -21 -97 -13 -276 17 -370 108 -346 459
-575 807 -526 381 53 653 363 653 743 0 122 -21 219 -70 323 -75 160 -191 280
-345 356 -179 87 -323 99 -566 43 -25 -6 -28 0 -135 242 -60 136 -110 250
-112 254 -6 16 229 79 348 94 88 11 317 -4 421 -28z"/>
</g>
</svg>
