<svg version="1.0" xmlns="http://www.w3.org/2000/svg" width="933.333" height="933.333" viewBox="0 0 700 700"><path d="M198.7 52l-30.8 50.9 10.7 41.1c5.8 22.6 10.4 41.3 10.2 41.5-.1.1-5.9-.6-12.8-1.6s-26.8-3.9-44.2-6.4l-31.7-4.6-49.9 32.8C22.7 223.7.5 238.8.9 239.2c.3.3 27.8 12 61.1 25.8 33.3 13.9 60.7 25.4 60.9 25.6.2.1-1.1 4.2-2.8 9.1-11.5 31.7-18.1 75.6-16.7 110.3 2 45.2 11.6 82.9 31.6 123.5 37.5 76.1 103.9 131.4 186.3 155.1 25.6 7.3 51.1 10.8 80.2 10.8 44.1 0 82.2-8.2 122.9-26.5 20.7-9.3 45.8-24.9 63.6-39.2 10.7-8.8 31.9-29.6 41.2-40.7 53.6-63.7 78.3-147.4 68.2-230.5-10.8-88.5-60.4-168-134.8-216-40.9-26.4-86.2-41.8-136.6-46.6-15.2-1.4-47.7-.6-64 1.6-21.5 2.9-48.1 9.8-67 17.2-4.7 1.8-9 3.3-9.6 3.3-.6 0-7.5-14.3-15.2-31.8-7.7-17.4-19.8-44.6-26.7-60.5-7-15.8-13-28.7-13.4-28.7-.3.1-14.4 23-31.4 51zM430 157.5c97.5 12.1 178.5 82 204.4 176.7 6.7 24.4 8 35.2 8.1 64.3 0 20.4-.4 28.5-1.8 37.5C623.6 544 539.9 626.3 432 641.2c-14.1 1.9-49.7 1.6-64.5-.6-95.4-14.1-173.5-83.2-199-176-6.7-24.7-8-34.9-8-65.1 0-28.8.8-36.2 6.1-58 3.3-13.3 8.3-28.5 9.5-28.5 1 0 49 19.9 49.8 20.6.2.2-1 5-2.8 10.7-9.1 29-10.6 63.5-4.1 94.6 4.3 20.2 14.5 45.1 25.7 62.6 11.9 18.4 31.8 39.3 49.3 51.7 19.8 14.1 46.7 25.5 72.5 31 9.7 2 13.7 2.3 35 2.3s25.3-.3 35-2.3c58.7-12.4 105.4-48.1 131.9-100.9 14.2-28.3 20.4-57.6 19.3-91.3-.7-19.9-3.3-34.7-9.3-52.8-32.7-97.9-138-150.7-235.7-118.1-6.6 2.1-12.2 3.7-12.6 3.4-1-.6-22.5-49.4-22-49.9 1.5-1.3 25.2-9.2 34.9-11.6 11.2-2.7 27.6-5.5 36.5-6.3 11.5-1 39.3-.6 50.5.8zm.1 113.9c26.4 6 50.3 20.2 68.2 40.4 16.2 18.2 26 37.9 31.3 63.2 2.5 11.8 2.5 37.2.1 49-11.3 53.4-50.4 93-102.9 104.1-14.4 3.1-36.1 3.1-50.5 0-52.8-11.2-92.4-51.5-103-104.8-2.1-10.6-2.3-35.5-.4-45.3 2-10.5 5.2-22 6.2-22 1.2 0 49.2 20 50.1 20.8.3.4-.1 3.8-.9 7.7-2.1 9.7-1.3 27.6 1.7 37 10.8 34.6 45.9 57.5 80.7 52.6 38.1-5.3 65.3-36.3 65.3-74.3 0-12.2-2.1-21.9-7-32.3-7.5-16-19.1-28-34.5-35.6-17.9-8.7-32.3-9.9-56.6-4.3-2.5.6-2.8 0-13.5-24.2-6-13.6-11-25-11.2-25.4-.6-1.6 22.9-7.9 34.8-9.4 8.8-1.1 31.7.4 42.1 2.8z"/></svg>