<?xml version="1.0" standalone="no"?>
<!DOCTYPE svg PUBLIC "-//W3C//DTD SVG 1.1//EN" "http://www.w3.org/Graphics/SVG/1.1/DTD/svg11.dtd" >
<svg xmlns="http://www.w3.org/2000/svg">
<metadata>Generated by IcoMoon</metadata>
<defs>
<font id="icomoon" horiz-adv-x="1024">
<font-face units-per-em="1024" ascent="960" descent="-64" />
<missing-glyph horiz-adv-x="1024" />
<glyph unicode="&#x20;" horiz-adv-x="512" d="" />
<glyph unicode="&#xe900;" glyph-name="checkmark" d="M924.516 559.79l28.589 127.922c0.362 1.519 0.569 3.263 0.569 5.055 0 10.128-6.62 18.709-15.769 21.653l-0.161 0.045-123.826 38.829-38.402 125.276c-2.876 9.335-11.425 16.002-21.531 16.002-1.761 0-3.474-0.202-5.118-0.585l0.152 0.030-126.514-28.887-95.238 88.837c-3.986 3.736-9.363 6.031-15.276 6.031s-11.29-2.295-15.288-6.043l0.012 0.011-95.323-88.88-126.514 28.887c-1.489 0.352-3.199 0.554-4.956 0.554-10.098 0-18.638-6.668-21.457-15.841l-0.042-0.159-38.402-125.276-123.911-38.829c-9.267-3.031-15.843-11.599-15.843-21.702 0-1.791 0.207-3.534 0.597-5.206l-0.030 0.154 28.589-127.922-87.856-96.39c-3.705-4.062-5.974-9.49-5.974-15.446s2.269-11.385 5.99-15.464l-0.016 0.018 87.898-96.262-28.589-127.922c-0.362-1.519-0.569-3.263-0.569-5.055 0-10.128 6.62-18.709 15.769-21.653l0.161-0.045 123.868-38.829 38.402-125.276c2.897-9.329 11.45-15.985 21.558-15.985 1.736 0 3.425 0.196 5.048 0.568l-0.151-0.029 126.514 28.887 95.323-88.88c3.967-3.705 9.312-5.981 15.187-5.981 5.919 0 11.3 2.309 15.289 6.076l-0.011-0.010 95.281 88.88 126.514-28.887c1.489-0.352 3.199-0.554 4.956-0.554 10.098 0 18.638 6.668 21.457 15.841l0.042 0.159 38.402 125.276 123.911 38.829c9.267 3.031 15.843 11.599 15.843 21.702 0 1.791-0.207 3.534-0.597 5.206l0.030-0.154-28.589 127.922 87.941 96.39c3.693 4.059 5.954 9.478 5.954 15.425s-2.261 11.366-5.971 15.444l0.017-0.019-87.941 96.262zM883.383 358.306c-3.684-4.062-5.939-9.481-5.939-15.424 0-1.793 0.205-3.537 0.593-5.212l-0.030 0.155 26.583-119.047-115.335-36.141c-7.118-2.281-12.607-7.798-14.805-14.774l-0.044-0.16-35.714-116.615-117.724 26.882c-1.487 0.352-3.195 0.554-4.95 0.554-5.909 0-11.285-2.288-15.288-6.027l0.013 0.012-88.752-82.778-88.709 82.736c-3.995 3.725-9.375 6.011-15.288 6.011-1.75 0-3.454-0.2-5.089-0.579l0.151 0.030-117.767-26.882-35.714 116.615c-2.23 7.153-7.721 12.688-14.689 14.932l-0.16 0.045-115.292 36.141 26.583 119.047c0.353 1.509 0.555 3.242 0.555 5.022 0 5.94-2.252 11.355-5.949 15.435l0.017-0.020-81.925 89.733 81.882 89.69c3.684 4.062 5.939 9.481 5.939 15.424 0 1.793-0.205 3.537-0.593 5.212l0.030-0.155-26.583 119.047 115.292 36.141c7.118 2.281 12.607 7.798 14.805 14.774l0.044 0.16 35.714 116.615 117.767-26.882c1.477-0.347 3.173-0.546 4.916-0.546 5.905 0 11.278 2.285 15.28 6.019l-0.013-0.012 88.794 82.778 88.709-82.736c3.99-3.727 9.366-6.015 15.275-6.015 1.755 0 3.463 0.202 5.101 0.583l-0.151-0.030 117.767 26.882 35.714-116.572c2.23-7.153 7.721-12.688 14.689-14.932l0.16-0.045 115.292-36.141-26.583-119.047c-1.621-7.253 0.384-14.934 5.376-20.438l81.925-89.776-81.882-89.69zM688.171 605.018c-3.622 2.645-8.164 4.232-13.077 4.232-7.535 0-14.198-3.734-18.238-9.454l-0.047-0.070-180.278-255.162-111.708 112.946c-4.051 4.12-9.686 6.673-15.916 6.673s-11.864-2.553-15.913-6.67l-0.003-0.003c-4.078-4.134-6.596-9.817-6.596-16.086s2.518-11.952 6.598-16.089l-0.003 0.003 130.483-131.933c4.044-4.113 9.668-6.662 15.887-6.662 7.545 0 14.215 3.752 18.244 9.493l0.047 0.071 195.766 277.093c2.605 3.659 4.165 8.22 4.165 13.147 0 7.566-3.681 14.273-9.35 18.426l-0.064 0.045z" />
<glyph unicode="&#xe901;" glyph-name="stones" d="M942.121 203.171c0 84.805-60.199 161.595-161.595 211.238-3.188 1.595-6.335 3.188-7.929 4.74-7.929 3.232-17.409 8.059-25.338 11.204 66.534 32.017 107.731 80.022 107.731 136.042 0 62.397-52.313 115.185-133.111 147.202-9.481 3.188-20.555 7.972-31.673 11.204-14.22 3.188-28.527 7.972-44.385 9.566 45.979 22.408 74.507 57.614 74.507 96.009 0 48.005-41.196 89.632-102.99 112.039-29.754 11.138-64.138 17.585-100.028 17.585-0.481 0-0.961-0.001-1.442-0.003h0.074c-110.919 0-204.342-59.209-204.342-131.215 0-48.005 42.747-89.632 107.731-108.807-91.915-28.785-152.115-86.4-152.115-153.58 0-44.815 26.933-84.805 71.317-115.185-155.261-43.222-256.657-139.187-256.657-248.038 0-148.797 194.863-267.171 432.473-267.171h19.047c228.129 6.378 408.728 121.52 408.728 267.171zM343.227 828.826c0 46.367 72.912 99.155 172.713 99.155 98.25 0 172.713-52.788 172.713-99.198 0-41.584-57.054-78.427-133.111-89.632-14.22 0-26.933-1.551-39.602-1.551h-6.335c-90.278 1.595-166.335 43.178-166.335 91.183zM298.842 566.395c0 68.818 93.51 126.432 212.315 139.231h4.74c14.264 1.595 23.787 1.595 33.267 1.595h12.713c142.548 0 261.397-65.587 261.397-142.377s-120.4-142.419-261.397-142.419h-12.713c-137.765 4.827-250.236 68.775-250.236 144.014zM533.349-31.939h-19.004c-220.201 0-400.843 103.982-400.843 235.197 0 100.792 106.136 191.975 266.18 225.587 42.747-19.219 95.018-32.017 153.666-35.207h26.933c50.676 0 99.801 7.972 140.997 20.77 128.328-41.584 209.126-121.563 209.126-209.557 0-129.621-166.335-230.414-377.056-236.791zM595.186 639.996c1.551 0 90.278-3.232 145.738-73.602 3.146-3.232 7.929-6.42 12.669-6.42 3.188 0 6.335 1.595 9.481 3.188 6.378 4.827 7.929 16.030 3.188 22.408-64.94 83.211-166.335 86.4-171.076 86.4-8.769-0.048-15.858-7.169-15.858-15.943 0-0.015 0-0.030 0-0.045v0.002c0-0.013 0-0.028 0-0.043 0-8.776 7.089-15.895 15.854-15.943h0.005zM519.128 897.557c-66.534 11.204-121.951-36.8-123.588-38.352-3.085-3.114-4.992-7.4-4.992-12.132 0-3.871 1.276-7.443 3.43-10.321l-0.032 0.044c2.634-2.969 6.459-4.832 10.72-4.832 0.14 0 0.28 0.002 0.419 0.006h-0.020c4.324 0.203 8.195 1.989 11.079 4.787l-0.004-0.004s45.937 40.032 96.655 30.423c9.481-1.595 17.409 3.188 18.96 12.798 1.637 8.015-4.74 15.987-12.626 17.582zM501.676 23.994c47.53 0 101.396 6.42 161.595 24.002 6.69 2.53 11.36 8.882 11.36 16.324 0 1.022-0.088 2.024-0.258 2.999l0.015-0.104c-3.188 7.972-11.074 12.798-19.004 11.204-304.231-88.037-423.036 95.966-427.775 103.982-4.74 7.972-14.22 9.61-22.192 4.783-7.886-4.783-9.481-14.393-4.74-22.408 0 0 88.727-140.782 301.041-140.782z" />
<glyph unicode="&#xe902;" glyph-name="clock" d="M507.99 960c-282.069 0-507.989-231.424-507.989-512 0-282.368 227.541-512 507.989-512h8.021c280.448 0 507.989 229.632 507.989 512 0 280.576-225.92 512-507.989 512h-8.021zM531.286 913.067c68.181-2.219 132.437-19.285 189.781-47.957l-16.341-28.373c-1.576-3.059-2.5-6.676-2.5-10.508 0-12.89 10.449-23.339 23.339-23.339 8.131 0 15.291 4.158 19.47 10.465l0.054 0.087 16.341 28.757c55.467-35.243 103.168-81.835 139.307-136.747l-27.307-15.616c-6.97-4.135-11.569-11.621-11.569-20.181 0-12.916 10.471-23.387 23.387-23.387 4.356 0 8.434 1.191 11.927 3.265l-0.108-0.059 26.923 16c29.608-55.141 48.647-120.029 52.677-188.949l0.059-1.259h-33.109c-0.051 0-0.111 0.001-0.171 0.001-12.772 0-23.125-10.354-23.125-23.125 0-0.045 0-0.090 0-0.136v0.007c0-0.013 0-0.028 0-0.043 0-12.842 10.411-23.253 23.253-23.253 0.015 0 0.030 0 0.045 0h33.449c-2.878-69.523-20.558-134.282-49.947-192.088l1.222 2.648-30.549 17.451c-3.336 1.955-7.347 3.11-11.627 3.11-12.863 0-23.291-10.428-23.291-23.291 0-8.583 4.643-16.082 11.554-20.122l0.11-0.060 31.275-17.835c-36.377-57.040-82.932-104.29-137.524-140.36l-1.74-1.080-18.176 31.275c-4.1 7.021-11.598 11.664-20.181 11.664-12.863 0-23.291-10.428-23.291-23.291 0-4.28 1.155-8.291 3.169-11.737l-0.060 0.11 18.176-31.659c-56.628-29.832-123.41-48.254-194.274-50.499l-0.712-0.018v33.493c0 12.842-10.411 23.253-23.253 23.253s-23.253-10.411-23.253-23.253v-33.109c-69.805 3.515-134.509 22.209-191.893 52.821l2.453-1.195 18.133 31.275c12.681 0.15 22.903 10.464 22.903 23.166 0 12.795-10.373 23.168-23.168 23.168-8.311 0-15.601-4.377-19.689-10.951l-0.057-0.098c-0.003 0-0.006 0-0.009 0-8.708 0-16.298-4.787-20.283-11.873l-0.060-0.117-17.792-30.933c-55.604 37.2-101.557 84.31-136.345 139.195l-1.127 1.904 31.659 18.56c7.671 3.93 12.83 11.782 12.83 20.839 0 12.89-10.449 23.339-23.339 23.339-4.758 0-9.184-1.424-12.874-3.869l0.087 0.054-31.275-18.176c-27.644 54.899-44.931 119.296-47.589 187.449l-0.027 0.882h33.109c12.84 0.096 23.212 10.527 23.212 23.381 0 6.404-2.575 12.207-6.745 16.43l0.002-0.002c-4.182 4.166-9.95 6.742-16.321 6.742-0.052 0-0.105 0-0.157-0.001h-32.76c3.883 67.84 21.931 131.627 51.627 188.757l28.032-16c3.014-1.521 6.57-2.412 10.333-2.412 12.89 0 23.339 10.449 23.339 23.339 0 8.076-4.102 15.193-10.335 19.383l-0.084 0.053-27.605 16c36.302 54.912 82.167 100.436 135.635 135.266l1.795 1.096 16.384-27.989c3.804-7.931 11.77-13.309 20.993-13.309 12.819 0 23.211 10.392 23.211 23.211 0 5.002-1.582 9.634-4.273 13.423l0.048-0.072-16 27.989c53.514 27.7 116.343 45.325 182.934 48.682l1.087 0.044v-33.067c0-0.029 0-0.064 0-0.099 0-6.401 2.611-12.193 6.825-16.368l0.002-0.002c4.192-4.23 10.004-6.848 16.427-6.848s12.235 2.619 16.425 6.847l0.002 0.002c4.218 4.21 6.827 10.029 6.827 16.458 0 0.004 0 0.008 0 0.011v-0.001 33.365zM511.659 695.979c-12.692-0.166-22.916-10.494-22.916-23.209 0-0.151 0.001-0.301 0.004-0.451v0.022-222.549c-0.064-0.595-0.101-1.285-0.101-1.984s0.037-1.389 0.108-2.069l-0.007 0.085v-0.384c0.118-0.919 0.238-1.645 0.379-2.363l-0.038 0.23v-0.427c0.213-0.555 0.427-1.195 0.725-1.792v-0.384c0.256-0.555 0.427-1.195 0.725-1.792v-0.384c0.386-0.704 0.753-1.29 1.15-1.853l-0.041 0.061v-0.384c0.359-0.551 0.71-1.024 1.086-1.475l-0.020 0.024c0.524-0.862 1.002-1.572 1.509-2.259l-0.059 0.083 1.493-1.451 0.341-0.384 1.451-1.451h0.384l1.451-1.067h0.341l1.451-1.451h0.384c0.461-0.229 1.067-0.488 1.685-0.719l0.149-0.049h0.341c4.267-1.749 8.917-2.261 13.397-1.451h323.712c12.854 0 23.275 10.42 23.275 23.275s-10.42 23.275-23.275 23.275v0h-305.493v201.088c0.001 0.077 0.001 0.167 0.001 0.257 0 12.913-10.468 23.381-23.381 23.381-0.091 0-0.181-0.001-0.271-0.002h0.014z" />
<glyph unicode="&#xe903;" glyph-name="search" d="M1009.817 25.010l-189.518 189.203c144.934 180.381 131.071 447.171-34.265 611.089-82.955 83.212-197.692 134.696-324.454 134.696-0.413 0-0.826-0.001-1.239-0.002h0.064c-0.045 0-0.098 0-0.151 0-127.060 0-242.1-51.471-325.404-134.698l0.004 0.004c-83.299-82.814-134.853-197.479-134.853-324.185 0-0.369 0-0.739 0.001-1.108v0.057c0-123.194 48.364-237.567 134.852-325.236 82.955-83.212 197.692-134.696 324.454-134.696 0.386 0 0.771 0 1.157 0.001h-0.060c109.098 0.063 209.355 37.869 288.432 101.066l-0.925-0.715 189.439-189.281c10.161-10.161 22.843-15.202 35.604-15.202 14.021 0 26.782 5.041 35.604 15.202 9.545 9.644 15.442 22.915 15.442 37.562 0 14.007-5.392 26.754-14.214 36.279l0.032-0.035zM819.197 501.405c0.001-0.258 0.001-0.563 0.001-0.869 0-196.633-159.402-356.035-356.035-356.035-0.444 0-0.887 0.001-1.33 0.002h0.069c-0.445-0.002-0.971-0.003-1.498-0.003-196.546 0-355.877 159.332-355.877 355.877 0 0.333 0 0.666 0.001 0.999v-0.051c-0.001 0.258-0.001 0.563-0.001 0.869 0 196.633 159.402 356.035 356.035 356.035 0.444 0 0.887-0.001 1.33-0.002h-0.069c0.445 0.002 0.971 0.003 1.498 0.003 196.546 0 355.877-159.332 355.877-355.877 0-0.333 0-0.666-0.001-0.999v0.051z" />
<glyph unicode="&#xe904;" glyph-name="speedometer" d="M539.304 339.674c-8.108 3.238-17.511 5.161-27.343 5.251h-0.036c-43.426 0-78.786-35.793-78.786-79.71 0-43.965 35.353-79.759 78.786-79.759 43.59 0.32 78.809 35.732 78.809 79.364 0 14.812-4.055 28.67-11.115 40.534l0.203-0.368 180.33 211.842c0.441 0.245 0.872 0.294 1.215 0.633 6.652 4.975 10.92 12.833 10.92 21.684 0 5.917-1.903 11.394-5.136 15.843l0.057-0.080c0 0.147-1.166 1.607-1.215 1.705-4.829 6.627-12.564 10.892-21.291 10.892-9.826 0-18.392-5.395-22.892-13.384l-0.067-0.131-182.417-214.32zM511.924 239.102c-14.241 0.135-25.729 11.712-25.729 25.967 0 0.036 0 0.068 0 0.108v-0.008c0 14.345 11.523 26.015 25.776 26.015 14.149 0 25.729-11.719 25.729-26.015 0-0.031 0-0.060 0-0.099 0-14.272-11.52-25.859-25.765-25.967h-0.012zM0 353.023c0-115.314 36.684-224.509 106.158-315.842l9.389-12.358h792.786l9.389 12.358c66.306 86.041 106.277 195.368 106.277 314.022 0 0.661-0.001 1.323-0.004 1.984v-0.101c0 285.623-229.71 518.090-512.075 518.090-282.306 0-511.911-232.351-511.911-518.148zM961.604 353.023c0-96.141-29.067-187.424-84.238-264.968h-730.8c-52.642 73.18-84.185 164.592-84.185 263.387 0 0.555 0.001 1.113 0.004 1.666v-0.082c0 250.888 201.67 454.964 449.588 454.964 247.909 0.058 449.646-204.076 449.646-454.964zM817.659 362.961c-0.976 0.119-2.104 0.189-3.254 0.189-15.048 0-27.336-11.859-28.013-26.739l-0.003-0.061c-0.117-0.961-0.187-2.067-0.187-3.198 0-14.197 10.802-25.866 24.635-27.242l0.111-0.012c0.7-0.059 1.509-0.093 2.33-0.093 14.858 0 27.103 11.188 28.772 25.601l0.016 0.137c0.142 1.053 0.217 2.262 0.217 3.495 0 14.304-10.667 26.114-24.487 27.906l-0.142 0.016zM779.080 441.311l27.481 5.625-27.072-7.063c3.135-12.257 14.079-21.173 27.113-21.173 2.442 0 4.805 0.312 7.066 0.899l-0.196-0.047c12.171 3.324 20.97 14.284 20.97 27.295 0 2.522-0.331 4.963-0.952 7.295l0.048-0.2-0.561 2.198c-3.36 11.917-14.134 20.499-26.92 20.499-15.424 0-27.923-12.497-27.923-27.923 0-2.639 0.362-5.194 1.056-7.614l-0.048 0.199zM793.92 250.895c-3.766 2.033-8.24 3.23-12.999 3.23-10.73 0-20.030-6.094-24.648-15.003l-0.076-0.153-0.772-1.485c-2.072-3.853-3.293-8.43-3.293-13.284 0-10.692 5.896-20 14.608-24.867l0.142-0.078c3.814-2.115 8.367-3.357 13.203-3.357 10.635 0 19.868 6.009 24.493 14.826l0.076 0.15 0.971 1.895c2.036 3.81 3.233 8.336 3.233 13.142 0 10.761-6.007 20.121-14.858 24.91l-0.147 0.078zM659.839 605.478l16.325 23.026-15.202-23.692c4.284-2.809 9.533-4.481 15.174-4.481 9.79 0 18.41 5.036 23.399 12.661l0.066 0.111c2.852 4.365 4.55 9.705 4.55 15.446 0 10.706-5.909 20.037-14.638 24.91l-0.142 0.078c-4.176 2.658-9.268 4.234-14.727 4.234-9.999 0-18.761-5.287-23.64-13.219l-0.071-0.118c-8.186-13.308-4.198-30.709 8.902-38.895zM564.399 643.703l1.789-0.305c1.42-0.264 3.052-0.409 4.72-0.409 13.561 0 24.816 9.839 27.033 22.768l0.020 0.164c0.26 1.454 0.404 3.126 0.404 4.835 0 14.039-9.99 25.748-23.247 28.404l-0.184 0.030c-1.57 0.314-3.38 0.49-5.225 0.49-13.603 0-24.94-9.744-27.399-22.634l-0.026-0.174c-2.915-15.354 6.958-30.142 22.106-33.165zM456.834 643.608c1.736 0.023 3.419 0.193 5.049 0.488l-0.185-0.026 1.895 0.305c15.202 2.713 24.407 17.249 21.697 32.6-2.698 13.28-14.282 23.126-28.157 23.126-1.806 0-3.571-0.17-5.279-0.488l0.174 0.026c-13.535-2.23-23.731-13.85-23.731-27.841 0-15.575 12.621-28.195 28.195-28.195 0.119 0 0.238 0.001 0.362 0.003h-0.016zM266.619 242.242c-4.648 9.186-14.013 15.376-24.83 15.376-4.648 0-9.030-1.148-12.882-3.167l0.15 0.076c-9.122-4.837-15.23-14.268-15.23-25.132 0-4.665 1.124-9.065 3.124-12.947l-0.078 0.159 1.076-2.198c4.752-8.936 14.007-14.921 24.659-14.921 4.817 0 9.348 1.222 13.304 3.38l-0.142-0.076c8.864 4.932 14.759 14.252 14.759 24.942 0 4.864-1.215 9.438-3.367 13.441l-0.536 1.031zM286.627 577.384c-4.638 3.608-10.541 5.785-16.962 5.785-9.838 0-18.481-5.121-23.399-12.841l-0.068-0.111c-9.215-12.431-6.654-30.194 5.73-39.457 4.585-3.478 10.383-5.563 16.667-5.563 9.155 0 17.275 4.432 22.326 11.271l0.050 0.079-21.237 18.372 22.208-17.096c3.552 4.697 5.689 10.635 5.689 17.073 0 9.117-4.286 17.226-10.951 22.435l-0.063 0.048zM237.652 339.935l-0.205 1.844c-1.381 14.26-13.313 25.321-27.815 25.321-0.995 0-1.985-0.049-2.955-0.153l0.12 0.014c-14.172-1.622-25.080-13.549-25.080-28.027 0-1.056 0.056-2.096 0.174-3.111l-0.015 0.126 0.205-1.844c1.434-14.268 13.38-25.321 27.907-25.321 0.987 0 1.956 0.048 2.915 0.147l-0.118-0.013c14.148 1.622 25.037 13.527 25.037 27.97 0 1.070-0.059 2.127-0.174 3.167l0.015-0.128zM211.193 423.711c2.313-0.687 4.963-1.087 7.707-1.087 12.716 0 23.457 8.496 26.833 20.126l0.048 0.2 0.666 2.304c0.587 2.127 0.93 4.565 0.93 7.085 0 12.708-8.62 23.399-20.34 26.546l-0.193 0.048c-14.84 4.302-30.3-5.321-34.648-20.161-4.302-14.992 4.198-30.709 18.986-35.058zM336.928 654.606c-7.988-5.106-13.204-13.925-13.204-23.965 0-5.53 1.584-10.686 4.317-15.048l-0.071 0.116c4.993-8.034 13.763-13.306 23.776-13.306 5.447 0 10.534 1.559 14.826 4.266l-0.113-0.070 1.532 1.024c7.705 4.993 12.736 13.542 12.736 23.272 0 5.624-1.68 10.85-4.556 15.207l0.064-0.107c-5.167 7.894-13.969 13.030-23.965 13.030-5.669 0-10.951-1.654-15.394-4.502l0.111 0.070z" />
<glyph unicode="&#xe905;" glyph-name="case" d="M1023.452 730.963c0 33.451-24.166 60.553-53.931 60.553h-287.88v84.378c0 46.421-33.587 84.105-74.752 84.105h-189.781c-41.233 0-74.82-37.683-74.82-84.105v-84.378h-287.811c-29.764 0-53.931-27.17-53.931-60.484l-0.546-294.024c0-9.011 4.574-17.271 11.878-21.231 11.878-6.485 24.098-12.493 36.386-18.432v-400.861c0-33.382 24.166-60.484 53.931-60.484h819.677c29.764 0 53.931 27.17 53.931 60.484v406.868c12.561 6.485 24.917 13.312 37.001 20.48 6.827 4.096 11.264 12.083 11.196 20.821l-0.546 286.309zM384.341 875.893c0 20.343 14.746 36.932 32.836 36.932h189.713c17.818 0 32.905-16.862 32.905-36.864v-84.446h-255.454v84.378zM933.818-3.516c0-7.1-5.598-13.312-11.947-13.312h-819.745c-6.485 0-11.947 6.144-11.947 13.312v382.224c96.87-40.141 205.21-64.239 323.446-71.543v-35.635c0-24.303 17.613-44.1 39.253-44.1h118.238c21.641 0 39.253 19.797 39.253 44.1v36.045c119.74 8.055 228.147 33.451 323.446 75.639v-386.73zM455.611 257.262v102.4l112.777-0.068v-102.4l-112.777 0.068zM610.372 355.020v7.646c0 24.303-17.613 44.1-39.253 44.1h-118.238c-21.641 0-39.253-19.797-39.253-44.1v-8.192c-139.469 8.806-264.397 41.438-371.574 97.417l0.478 279.073c0 7.305 5.461 13.449 11.947 13.449h915.113c6.485 0 11.947-6.144 11.947-13.449l0.478-271.974c-104.653-59.255-229.649-94.071-371.643-103.97z" />
<glyph unicode="&#xe906;" glyph-name="profile" d="M523.187 960c154.964 0 246.373-148.138 246.373-284.671 0-136.396-91.409-284.603-246.373-284.603-150.937 0-246.305 148.138-246.305 284.671 0 136.464 95.3 284.603 246.305 284.603zM324.532 425.815c27.785 19.456 59.597-19.456 35.772-42.871-51.61-35.089-190.668-109.227-210.602-140.424-31.744-42.871-31.744-113.050-23.825-163.702 218.452-120.832 552.275-120.832 774.755 0 7.919 50.654 7.919 120.832-23.893 163.702-23.757 31.198-146.977 93.594-194.559 128.682-27.853 23.415 3.891 62.396 31.744 42.94 59.597-42.94 170.802-93.594 206.574-140.424 47.718-70.178 35.772-140.355 27.785-214.356 0 0-7.919-15.701-11.878-19.524-238.386-136.532-607.913-140.355-846.231 0-7.919 3.891-11.947 11.674-15.906 19.456-7.919 74.138-15.906 144.315 31.812 214.425 31.744 42.94 158.856 105.267 218.452 152.029v0.068zM523.187 909.278c-119.194 0-190.668-124.722-190.668-233.949s71.475-233.949 190.668-233.949c123.152 0 194.696 124.79 194.696 233.949 0 109.227-71.543 233.949-194.696 233.949z" />
<glyph unicode="&#xe907;" glyph-name="question" d="M512-64c-283.044 0-512 230.133-512 512 0 282.006 228.957 512 512 512s512-229.925 512-512c0-281.867-230.064-512-512-512zM512 897.533c-248.070 0-448.425-201.462-448.425-449.464 0-247.032 201.462-448.425 448.425-448.425s448.425 201.392 448.425 448.355c0 248.070-201.462 449.464-448.425 449.464zM517.332 720.448c-97.171-0.079-175.927-78.81-176.046-175.965v-0.011c0-15.928 12.743-28.602 28.671-28.602s28.602 12.674 28.602 28.602c0 65.723 52.98 118.703 118.703 118.703 65.792 0 118.772-52.98 118.772-118.703 0-65.654-53.049-118.703-118.772-118.703-0.042 0-0.090 0-0.139 0-15.72 0-28.464-12.744-28.464-28.464 0-0.049 0-0.097 0-0.146v0.007-85.876c0-15.928 12.743-28.602 28.602-28.602 15.928 0 28.671 12.743 28.671 28.602v60.391c84.059 14.144 147.306 86.381 147.306 173.39 0 0.154 0 0.309-0.001 0.464v-0.024c-0.157 96.65-78.543 174.939-175.214 174.939-0.243 0-0.487 0-0.73-0.001h0.038zM557.569 195.705c0-53.673-80.543-53.673-80.543 0 0 53.742 80.543 53.742 80.543 0z" />
<glyph unicode="&#xe908;" glyph-name="bell" d="M801.232 231.936v274.637c0 119.194-75.469 221.389-178.176 261.837 6.298 23.45 10.547 46.797 10.547 65.997 0 68.096-54.528 125.594-123.699 125.594s-123.699-57.498-123.699-125.594c0-19.2 4.198-42.598 10.496-66.048-105.177-41.803-178.178-142.708-178.178-260.664 0-0.394 0.001-0.788 0.002-1.182v0.061-274.637c-37.504-9.069-64.928-42.344-64.928-82.024 0-0.359 0.002-0.718 0.007-1.077l-0.001 0.054c0-46.797 37.734-82.995 81.766-82.995h159.232v-10.65c0.051-65.997 52.48-119.245 117.402-119.245 65.024 0 117.402 53.248 117.402 119.245v10.65h159.232c46.080 0 81.766 38.298 81.766 82.995-2.048 42.598-31.437 76.646-69.171 83.046zM509.904 917.402c46.080 0 81.766-38.298 81.766-82.995 0-14.899-4.25-34.048-10.496-53.248-17.009 4.052-36.541 6.384-56.616 6.4h-31.448c-20.069-0.020-39.584-2.352-58.305-6.742l1.729 0.342c-6.298 19.2-10.496 38.349-10.496 53.248 2.099 44.698 37.786 82.995 83.866 82.995zM260.457 506.573c0 0.059 0 0.13 0 0.2 0 103.44 65.685 191.538 157.619 224.86l1.664 0.527c4.198-2.15 67.072 29.798 182.374 0 93.572-33.864 159.232-121.949 159.232-225.369 0-0.095 0-0.19 0-0.284v0.015-272.538h-500.838v272.589zM585.373 57.395c0-42.598-33.536-76.646-75.469-76.646-41.714 0.142-75.474 33.991-75.474 75.724 0 0.324 0.002 0.648 0.006 0.971v-0.049 8.499h148.838v-8.499h2.048zM784.541 108.493h-549.269c-22.031 0.144-39.835 18.037-39.835 40.089 0 0.126 0.001 0.252 0.002 0.378v-0.019c0 23.398 18.893 40.448 39.834 40.448h549.166c23.040 0 39.834-19.2 39.834-40.448 2.048-21.299-16.794-40.448-39.834-40.448z" />
<glyph unicode="&#xe909;" glyph-name="arrow-down" d="M164.36 781.643c-4.556 4.698-10.927 7.614-17.978 7.614s-13.422-2.916-17.972-7.607l-0.006-0.007-121.067-125.619c-4.544-4.816-7.337-11.327-7.337-18.49s2.793-13.674 7.349-18.503l-0.012 0.013 486.658-504.637c4.542-4.727 10.917-7.664 17.978-7.664s13.436 2.937 17.97 7.655l0.008 0.008 486.658 504.296c4.576 4.823 7.39 11.356 7.39 18.547s-2.814 13.724-7.402 18.559l0.011-0.012-121.067 125.733c-4.556 4.698-10.927 7.614-17.978 7.614s-13.422-2.916-17.972-7.607l-0.006-0.007-347.614-359.674-347.614 359.788z" />
<glyph unicode="&#xe90a;" glyph-name="gear" d="M444.009 955.951c-29.44-3.686-48.64-22.938-59.699-42.906-9.83-18.432-15.462-43.315-16.333-62.771-1.178-31.232-18.944-61.44-47.77-77.722-13.876-7.8-30.458-12.394-48.114-12.394-16.344 0-31.768 3.937-45.375 10.915l0.561-0.261c-18.377 9.367-39.898 15.418-62.683 16.772l-0.446 0.021c-22.938 0.41-49.101-6.605-66.816-29.645-26.317-34.304-49.254-73.626-66.15-113.919-11.059-26.419-4.198-51.814 7.526-70.963 10.957-17.408 29.645-34.509 46.080-44.851 26.573-16.384 44.493-45.875 44.544-79.77 0.001-0.155 0.001-0.338 0.001-0.521 0-33.124-17.417-62.18-43.592-78.509l-0.39-0.227c-18.519-11.794-33.92-26.771-45.834-44.308l-0.348-0.543c-11.725-19.2-18.381-44.646-7.27-70.963 18.708-43.546 40.991-81.094 67.409-115.284l-0.9 1.211c17.664-22.938 43.674-30.003 66.56-29.696 23.24 1.254 44.812 7.223 64.161 16.961l-0.929-0.424c28.211 14.336 64 14.336 92.979-2.048 29.082-16.486 46.95-47.002 48.282-78.234 0.973-19.456 6.656-44.288 16.538-62.72 11.008-19.917 30.208-39.117 59.546-42.906 43.981-5.632 90.522-5.632 134.45-0.205 29.491 3.686 48.691 22.938 59.648 42.906 9.882 18.432 15.514 43.315 16.384 62.771 1.229 31.232 18.944 61.44 47.718 77.722 13.87 7.792 30.444 12.381 48.090 12.381 16.373 0 31.824-3.951 45.449-10.953l-0.56 0.261c17.51-8.806 42.138-16.179 63.13-16.794 22.938-0.358 49.152 6.656 66.867 29.696 26.266 34.304 49.203 73.626 66.15 113.919 10.957 26.368 4.147 51.814-7.526 70.963-11.008 17.408-29.696 34.509-46.182 44.851-26.85 16.802-44.454 46.2-44.493 79.713v0.006c0 33.792 17.715 63.181 43.981 79.36 16.486 10.24 35.226 27.341 46.182 44.8 11.674 19.2 18.381 44.646 7.322 70.963-18.733 43.565-41.032 81.129-67.462 115.338l0.902-1.215c-17.664 22.886-43.674 30.003-66.611 29.696-23.212-1.302-44.742-7.285-64.061-17.014l0.932 0.425c-28.262-14.336-64-14.336-93.030 2.048-27.724 15.95-46.509 44.716-48.272 77.996l-0.010 0.237c-1.216 23.058-7.171 44.461-16.902 63.623l0.416-0.903c-11.059 19.917-30.208 39.117-59.546 42.906-44.032 5.632-90.573 5.632-134.501 0.256zM427.216 848.227c0.461 14.336 2.816 26.317 9.216 37.222 5.171 9.421 10.394 12.186 14.95 12.8 17.604 2.385 37.951 3.746 58.616 3.746 21.361 0 42.382-1.455 62.969-4.27l-2.392 0.268c4.762-0.614 10.086-3.533 15.36-13.107 6.451-10.906 8.858-22.886 9.37-37.376 2.202-50.586 30.72-99.429 77.824-126.053 46.899-26.573 104.089-26.624 149.861-3.328 12.698 6.605 24.013 10.24 36.557 10.086 10.65 0.154 15.872-2.918 18.79-6.707 22.927-29.237 42.73-62.601 57.943-98.385l1.090-2.887c1.843-4.403 1.843-10.24-3.379-18.842-6.042-10.496-14.694-18.022-26.675-25.293-43.413-26.98-71.885-74.412-71.885-128.493 0-0.132 0-0.264 0.001-0.397v0.021c0.125-54.178 28.639-101.667 71.451-128.395l0.639-0.372c12.083-7.373 20.838-15.002 26.931-25.6 5.427-8.806 5.376-14.643 3.584-18.944-15.36-36.864-34.458-69.632-58.624-100.863-2.765-3.635-7.782-6.656-18.432-6.502-12.595-0.102-24.064 3.584-36.864 10.24-20.996 10.857-45.831 17.223-72.152 17.223-28.472 0-55.205-7.449-78.355-20.505l0.799 0.414c-44.814-25.548-75.114-72.057-77.556-125.825l-0.012-0.331c-0.512-14.387-2.918-26.317-9.216-37.222-5.222-9.421-10.445-12.237-15.002-12.8-17.604-2.387-37.951-3.749-58.617-3.749-21.361 0-42.381 1.456-62.968 4.273l2.391-0.268c-4.71 0.563-10.086 3.533-15.36 13.056-6.451 10.957-8.909 22.989-9.421 37.376-2.732 54.065-33.055 100.481-77.075 125.709l-0.749 0.396c-22.456 12.796-49.342 20.339-77.989 20.339-26.192 0-50.911-6.306-72.722-17.481l0.9 0.419c-12.646-6.554-24.064-10.24-36.557-10.035-10.65-0.102-15.872 2.918-18.79 6.758-22.898 29.213-42.698 62.539-57.937 98.276l-1.097 2.894c-1.843 4.403-1.894 10.24 3.43 18.893 5.99 10.496 14.643 18.022 26.624 25.293 43.411 26.957 71.885 74.372 71.885 128.436 0 0.134 0 0.269-0.001 0.403v-0.021c-0.066 54.222-28.597 101.765-71.45 128.498l-0.64 0.372c-12.134 7.322-20.89 14.95-26.982 25.498-5.376 8.858-5.325 14.694-3.482 18.944 15.258 36.864 34.406 69.632 58.573 100.863 2.765 3.686 7.782 6.656 18.432 6.554 12.646 0.102 24.064-3.584 36.813-10.24 45.67-23.347 102.86-23.552 149.759 2.867 44.814 25.558 75.123 72.057 77.607 125.819l0.012 0.336zM654.748 529.049c-48.435 82.534-151.5 109.362-228.761 65.485-77.21-43.878-105.164-145.1-56.73-227.634s151.5-109.311 228.709-65.434c77.261 43.827 105.215 145.049 56.781 227.583zM706.101 558.232c63.846-108.748 28.672-246.271-78.541-307.147-107.212-60.928-245.81-22.067-309.707 86.682-63.795 108.748-28.672 246.271 78.592 307.096 107.161 60.928 245.861 22.118 309.656-86.63z" />
<glyph unicode="&#xe90b;" glyph-name="lamp" d="M372.358 4.288h1.728c8.32-39.744 44.096-68.224 85.568-68.288h104.704c41.472 0 77.184 28.544 85.504 68.288h1.792c0.014 0 0.030 0 0.046 0 4.787 0 9.129 1.904 12.31 4.996l-0.004-0.004c3.14 3.054 5.096 7.312 5.12 12.027v220.613c106.285 46.853 185.578 138.198 215.088 249.782l0.592 2.634c7.11 27.073 11.193 58.154 11.193 90.188 0 87.947-30.771 168.707-82.134 232.102l0.541-0.69c-71.568 88.176-179.945 144.065-301.376 144.065-0.36 0-0.719 0-1.079-0.001h0.056c-0.328 0.001-0.717 0.002-1.106 0.002-121.393 0-229.739-55.864-300.73-143.286l-0.563-0.716c-50.829-62.707-81.605-143.473-81.605-231.427 0-32.052 4.087-63.15 11.768-92.8l-0.564 2.563c30.102-114.218 109.395-205.563 213.265-251.464l2.415-0.952v-220.608c0-4.48 1.92-8.832 5.12-12.032 3.264-3.2 7.68-4.992 12.352-4.992zM564.358-29.888h-104.704c-0.043 0-0.094 0-0.146 0-22.363 0-41.444 14.057-48.887 33.816l-0.119 0.36h203.008c-7.563-20.12-26.643-34.176-49.006-34.176-0.051 0-0.102 0-0.154 0h0.008zM634.246 38.4h-244.416v34.112h209.472v34.176h-209.536v34.112h244.352v-102.4zM483.91 463.679c-3.103 2.298-5.842 4.712-8.363 7.338l-0.021 0.022c-5.417 6.084-11.917 11.070-19.216 14.683l-0.368 0.165c-1.992 0.82-4.305 1.296-6.729 1.296-1.542 0-3.039-0.193-4.468-0.555l0.125 0.027-27.264-6.848-12.736 12.416 7.040 26.752h-0.064c0.345 1.255 0.543 2.695 0.543 4.182 0 2.377-0.506 4.635-1.416 6.674l0.042-0.104-10.112 23.872c-1.5 3.469-3.98 6.279-7.089 8.148l-0.079 0.044-24.32 14.016v17.472l24.256 14.080v-0.064c3.264 1.92 5.76 4.8 7.296 8.192l10.112 23.872c0.848 1.906 1.342 4.13 1.342 6.469 0 1.524-0.21 2.999-0.602 4.398l0.027-0.114-7.040 26.752 12.736 12.416 27.328-6.784c3.712-0.96 7.552-0.704 11.072 0.768l24.448 9.856c3.456 1.408 6.4 3.904 8.32 7.104l14.336 23.68h17.92l14.336-23.68c1.92-3.2 4.864-5.696 8.384-7.040l24.448-9.92c1.977-0.824 4.273-1.302 6.681-1.302 1.537 0 3.028 0.195 4.45 0.561l-0.123-0.027 27.328 6.784 12.736-12.416-7.040-26.752c-0.329-1.244-0.519-2.673-0.519-4.146 0-2.387 0.497-4.658 1.393-6.715l-0.042 0.109 10.112-23.872c1.516-3.458 4.018-6.25 7.15-8.084l0.082-0.044 24.32-14.080v-17.536l-24.32-14.016c-3.214-1.878-5.717-4.67-7.189-8.017l-0.043-0.111-10.112-23.936c-0.85-1.952-1.344-4.227-1.344-6.617 0-1.469 0.187-2.894 0.538-4.253l-0.026 0.118 7.040-26.752-12.736-12.416-27.328 6.784c-1.299 0.339-2.79 0.534-4.327 0.534-2.408 0-4.705-0.478-6.799-1.345l0.118 0.043c-7.681-3.749-14.199-8.692-19.599-14.665l-0.049-0.055c-2.504-2.632-5.179-5.043-8.029-7.239l-0.163-0.121c-6.36-2.51-10.795-8.566-10.88-15.669v-273.098h-34.88v273.087c-0.513 6.906-4.658 12.737-10.513 15.63l-0.111 0.050zM162.887 584.511c0 82.88 30.848 162.816 86.72 225.152 54.942 60.696 130.315 102.003 215.194 113.029l1.766 0.187c13.658 1.861 29.443 2.923 45.477 2.923 72.189 0 139.349-21.535 195.405-58.532l-1.33 0.825c69.039-45.336 119.991-113.337 142.586-193.242l0.582-2.406c21.76-80.064 13.12-165.12-24.512-239.36-38.552-74.612-101.231-132.238-177.53-163.39l-2.31-0.834c-6.353-2.537-10.769-8.619-10.816-15.738v-78.278h-69.632v263.999c3.072 2.56 5.952 5.376 8.768 8.128 1.344 1.344 3.2 3.2 4.864 4.672l29.312-7.36c1.313-0.347 2.821-0.546 4.375-0.546 4.82 0 9.193 1.917 12.397 5.030l-0.004-0.004 26.752 26.112c3.142 3.061 5.092 7.334 5.092 12.061 0 1.514-0.2 2.981-0.575 4.376l0.027-0.118-8 30.72 5.632 13.376 27.84 16.064c5.123 2.983 8.512 8.449 8.512 14.706 0 0.005 0 0.010 0 0.015v-0.001 36.928c0 0.004 0 0.009 0 0.014 0 6.257-3.389 11.723-8.431 14.663l-0.081 0.043-27.84 16-5.632 13.44 8 30.72c0.339 1.263 0.534 2.712 0.534 4.207 0 4.721-1.944 8.989-5.075 12.045l-0.003 0.003-26.88 26.24h0.128c-3.177 3.086-7.518 4.99-12.303 4.99-1.587 0-3.125-0.209-4.588-0.602l0.124 0.028-31.36-7.872-13.632 5.568-16.448 27.328c-3.157 5.028-8.671 8.321-14.955 8.321-0.052 0-0.105 0-0.157-0.001h-37.816c-0.025 0-0.055 0-0.085 0-6.284 0-11.798-3.293-14.912-8.247l-0.043-0.073-16.448-27.328-13.632-5.568-31.424 7.936c-1.305 0.348-2.804 0.548-4.349 0.548-4.788 0-9.128-1.919-12.293-5.030l0.002 0.002-26.88-26.24c-3.108-3.046-5.035-7.288-5.035-11.979 0-1.521 0.202-2.994 0.582-4.394l-0.027 0.117 8-30.72-5.632-13.44-27.904-16c-5.169-2.965-8.603-8.437-8.64-14.715v-36.997c0-6.016 3.328-11.648 8.64-14.72l27.904-16.064 5.632-13.376-8-30.72c-0.362-1.295-0.57-2.781-0.57-4.316 0-4.682 1.934-8.912 5.046-11.936l0.004-0.004 26.88-26.24c3.182-3.067 7.518-4.957 12.295-4.957 1.543 0 3.041 0.197 4.468 0.568l-0.123-0.027 29.312 7.36c1.728-1.536 3.456-3.456 4.864-4.672 2.88-2.752 5.76-5.568 8.768-8.128v-263.871h-69.632v78.272c-0.019 7.15-4.443 13.263-10.701 15.767l-0.115 0.041c-64 25.6-118.784 69.312-157.248 125.504-36.855 53.034-58.88 118.787-58.88 189.684 0 0.139 0 0.278 0 0.417v-0.086z" />
<glyph unicode="&#xe90c;" glyph-name="chart" d="M1024.001 478.056c-2.388 15.735-15.821 27.654-32.036 27.654-0.212 0-0.424-0.002-0.635-0.006h-249.307c-0.115 0.001-0.25 0.002-0.386 0.002-17.68 0-32.037-14.225-32.253-31.853v-0.020c0-17.664 14.592-31.999 32.639-31.999h167.677l-273.275-248.827c-6.104-5.48-13.345-9.834-21.311-12.661l-0.449-0.139v747.89c-0.215 17.649-14.572 31.874-32.253 31.874-0.158 0-0.316-0.001-0.474-0.003h-510.558c-13.29-0.129-24.673-8.167-29.677-19.628l-0.082-0.211c-1.548-3.586-2.448-7.761-2.448-12.147 0-8.715 3.554-16.599 9.293-22.283l0.003-0.002 141.629-132.99-141.565-134.013c-6.416-5.788-10.432-14.131-10.432-23.411 0-4.318 0.87-8.438 2.445-12.187l-0.077 0.207c5.12-12.224 17.408-20.16 30.975-19.904h476.791v-391.481l-9.792 11.712c-19.628 28.194-49.549 48.049-84.209 54.157l-0.781 0.114c-6.802 1.243-14.628 1.953-22.624 1.953-28.64 0-55.15-9.123-76.78-24.623l0.397 0.271-340.73-241.339c-8.328-5.764-13.715-15.265-13.715-26.025 0-7.013 2.289-13.493 6.16-18.731l-0.061 0.086c6.131-8.206 15.82-13.462 26.735-13.462 7.12 0 13.718 2.236 19.13 6.044l-0.106-0.070 340.73 241.531c10.501 7.499 23.597 11.989 37.744 11.989 22.117 0 41.67-10.977 53.508-27.782l0.138-0.207c24.107-33.813 63.189-55.598 107.358-55.598 34.187 0 65.324 13.050 88.705 34.44l278.679 252.961v-169.085c0-17.664 14.592-31.935 32.639-31.935s32.639 14.272 32.639 31.935v247.803zM259.727 749.411c6.058 5.761 9.825 13.88 9.825 22.88s-3.768 17.12-9.812 22.867l-0.013 0.013-107.774 100.99h396.281v-247.867h-396.281l107.902 101.054z" />
<glyph unicode="&#xe90d;" glyph-name="star-outline" d="M997.868 583.162c14.922-2.569 26.131-15.413 26.131-30.876 0-8.372-3.286-15.976-8.639-21.593l0.012 0.013-212.45-222.367 40.805-302.663c3.346-24.615-22.285-43.135-45.107-32.68l-286.592 130.6-286.592-130.6c-22.882-10.455-48.512 8.065-45.226 32.68l40.865 302.663-212.45 222.367c-5.341 5.605-8.626 13.208-8.626 21.58 0 15.462 11.209 28.306 25.945 30.848l0.187 0.026 305.651 55.562 152.168 270.939c5.656 9.819 16.094 16.323 28.050 16.323s22.394-6.505 27.967-16.167l0.083-0.156 152.049-270.939 305.77-55.562zM665.572 579.577c-9.562 1.762-17.496 7.575-22.083 15.557l-0.082 0.156-131.437 234.077-131.437-234.077c-4.669-8.15-12.599-13.981-21.966-15.742l-0.199-0.031-262.934-47.735 182.697-191.181c6.572-6.871 9.738-16.31 8.364-25.69l-35.13-260.783 247.161 112.677c3.948 1.838 8.57 2.911 13.442 2.911s9.495-1.073 13.643-2.994l-0.201 0.083 247.221-112.677-35.13 260.783c-0.177 1.246-0.279 2.687-0.279 4.15 0 8.373 3.319 15.969 8.711 21.549l-0.008-0.008 182.638 191.181-262.993 47.795z" />
<glyph unicode="&#xe90e;" glyph-name="heart-outline" d="M998.067 735.041c-22.668 48.469-57.483 88.039-100.608 115.826l-1.084 0.65c-42.165 27.252-93.694 43.454-149.002 43.454-0.003 0-0.006 0-0.009 0v0c-78-0.382-148.515-32.131-199.632-83.268l-0.001-0.001c-12.32-12.152-23.519-25.367-37.855-40.598-15.399 16.239-27.663 31.471-41.998 44.63-55.27 53.814-118.772 80.245-188.433 80.245v0c-0.539 0.004-1.182 0.007-1.82 0.007-27.042 0-53.223-3.703-78.053-10.624l2.043 0.483c-59.149-16.1-108.868-49.948-144.474-95.389l-0.449-0.592c-35.014-44.651-56.282-101.533-56.67-163.373v-0.085c-1.008-82.205 31.751-151.194 90.157-208.088 98.895-99.086 197.612-197.023 296.812-294.468l6.192-6.073c38.919-38.583 77.837-77.165 117.708-117.764 5.152 5.040 8.232 7.112 11.312 10.136l411.473 408.113c9.839 9.585 18.895 19.856 27.119 30.79l0.488 0.681c65.462 88.365 82.989 184.793 36.791 285.309zM902.87 492.458c-6.608-8.68-13.775-16.799-21.503-24.415l-370.65-367.458-67.589 66.973-105.276 104.548c-64.566 63.95-132.099 129.915-197.673 195.993-46.030 46.646-68.541 98.444-68.541 157.354 0 43.398 14.503 85.677 41.102 120.172 26.397 33.885 62.865 58.809 104.883 70.343l1.401 0.327c18.107 5.016 38.913 7.977 60.394 8.119l0.085 0.001c51.126 0 97.212-19.263 139.211-59.918 8.344-8.008 16.183-16.463 23.519-25.367 5.096-5.096 10.248-11.2 15.343-16.239l52.246-55.886 53.198 55.382 14.335 15.231c8.176 9.128 15.343 16.239 22.511 23.351 37.7 38.096 89.687 61.976 147.259 62.939l0.183 0.003c39.087-0.056 77.389-11.256 110.316-32.367 32.623-21.138 58.305-50.483 74.456-85.154l0.525-1.25c32.647-71.621 23.463-141.675-29.791-212.68z" />
<glyph unicode="&#xe90f;" glyph-name="gallery" d="M943.108 959.999h-862.266c-44.594-0.132-80.708-36.247-80.841-80.828v-862.331c0.132-44.594 36.247-80.708 80.828-80.841h862.331c44.594 0.132 80.708 36.247 80.841 80.828v0.013l-0.052 862.318c-0.132 44.594-36.247 80.708-80.828 80.841h-0.013zM80.84 906.139h862.318c14.797 0 26.93-12.133 26.93-26.93v-473.998l-169.493 169.52c-4.859 4.881-11.583 7.902-19.014 7.902s-14.155-3.020-19.013-7.901l-291.027-290.821-129.087 129.087c-4.857 4.866-11.571 7.876-18.988 7.876s-14.131-3.010-18.988-7.876v0l-250.644-250.309v716.469c0 14.848 12.133 26.982 26.982 26.982zM943.108-10.090h-862.266c-14.855 0.045-26.886 12.075-26.93 26.925v69.772l269.452 269.452 277.29-277.29c4.894-4.982 11.703-8.069 19.234-8.069 7.427 0 14.153 3.004 19.028 7.863l-0.001-0.001c4.881 4.859 7.902 11.583 7.902 19.014s-3.020 14.155-7.901 19.013l-129.088 129.088 271.625 272.116 188.586-188.612 0.052-312.317c0-14.848-12.107-26.982-26.982-26.982zM242.521 582.777c74.41 0.029 134.722 60.343 134.751 134.749v0.003c-0.029 74.41-60.343 134.722-134.749 134.751h-0.003c-73.291-1.481-132.138-61.245-132.138-134.751s58.846-133.27 131.998-134.749l0.138-0.002zM242.521 798.319c44.594-0.132 80.708-36.247 80.841-80.828v-0.013c-0.132-44.594-36.247-80.708-80.828-80.841h-0.013c-44.594 0.132-80.708 36.247-80.841 80.828v0.013c0.132 44.594 36.247 80.708 80.828 80.841h0.013z" />
<glyph unicode="&#xe910;" glyph-name="filter" d="M467.66 857.401v-88.558c-67.146-18.804-116.278-78.247-116.278-148.245 0-69.936 49.132-129.501 116.278-148.123v-433.875c0.271-23.913 19.719-43.193 43.67-43.193 0.235 0 0.471 0.002 0.705 0.005h-0.036c0.199-0.004 0.434-0.005 0.67-0.005 23.951 0 43.399 19.28 43.67 43.167v432.748c67.207 18.682 116.339 78.125 116.339 148.123s-49.192 129.501-116.339 148.123v88.68c-0.306 23.886-19.739 43.132-43.669 43.132-0.235 0-0.471-0.002-0.706-0.005h0.036c-0.707 0.043-1.534 0.067-2.365 0.067-23.182 0-41.975-18.792-41.975-41.975 0-0.023 0-0.047 0-0.070v0.004zM583.938 620.598c0-37.304-31.177-69.998-71.938-69.998s-71.938 30.328-71.938 69.998c0 39.669 31.177 69.998 71.938 69.998s71.938-32.633 71.938-69.998zM205.078 38.539v92.137c67.086 18.682 116.218 78.125 116.218 148.123 0 69.936-49.132 129.501-116.278 148.123v430.479c-0.306 23.886-19.739 43.132-43.669 43.132-0.235 0-0.471-0.002-0.706-0.005h0.036c-25.233 0-44.34-18.682-44.34-43.066v-430.479c-67.207-18.682-116.339-78.125-116.339-148.123s49.192-129.501 116.339-148.123v-92.137c0.306-23.885 19.74-43.131 43.669-43.131 0.214 0 0.428 0.002 0.642 0.004h-0.032c25.233-0.122 44.4 18.561 44.4 43.066zM88.739 278.86c0 37.304 31.177 69.936 71.938 69.936s71.938-30.328 71.938-69.936c0-39.669-33.604-69.998-71.938-69.998s-71.938 32.633-71.938 69.998zM818.921 857.401v-430.357c-67.086-18.682-116.218-78.186-116.218-148.123 0-69.998 49.132-129.501 116.278-148.183v-92.137c0.339-23.859 19.76-43.071 43.668-43.071 0.236 0 0.472 0.002 0.707 0.005h-0.036c25.233 0 44.34 18.622 44.34 43.066v92.197c67.207 18.622 116.339 78.125 116.339 148.062 0 69.998-49.192 129.562-116.339 148.183v430.357c-0.272 23.912-19.719 43.192-43.67 43.192-0.214 0-0.428-0.002-0.642-0.004h0.032c-25.233 0-44.4-18.682-44.4-43.187zM935.26 278.86c0-37.364-31.177-69.998-71.938-69.998s-71.938 30.328-71.938 69.998c0 39.609 31.177 69.936 71.938 69.936s71.938-32.633 71.938-69.936z" />
<glyph unicode="&#xe911;" glyph-name="plus-rounded" d="M947.281 526.506h-354.987v354.987c-0.097 43.319-35.188 78.41-78.497 78.507h-0.009c-43.319-0.097-78.41-35.188-78.507-78.497v-354.996h-354.987c-43.319-0.097-78.41-35.188-78.507-78.497v-0.009c0-43.264 35.328-78.507 78.507-78.507h354.987v-354.987c0-43.264 35.243-78.507 78.507-78.507s78.507 35.328 78.507 78.507v354.987h354.987c41.801 2.010 74.931 36.389 74.931 78.507s-33.13 76.497-74.751 78.5l-0.18 0.007z" />
<glyph unicode="&#xe912;" glyph-name="external-link" d="M983.437 959.984c-1.604-0.080-3.087-0.234-4.543-0.461l0.24 0.031h-309.881c-0.55 0.027-1.194 0.043-1.842 0.043-21.773 0-39.424-17.651-39.424-39.424s17.651-39.424 39.424-39.424c0.648 0 1.292 0.015 1.932 0.046l-0.091-0.003h219.93l-483.844-483.757c-7.134-7.123-11.547-16.97-11.547-27.846 0-21.732 17.617-39.35 39.35-39.35 10.856 0 20.684 4.396 27.804 11.505v0l483.844 483.844v-219.843c-0.027-0.55-0.043-1.194-0.043-1.842 0-21.773 17.651-39.424 39.424-39.424s39.424 17.651 39.424 39.424c0 0.648-0.015 1.292-0.046 1.932l0.003-0.091v309.881c0.232 1.608 0.365 3.464 0.365 5.351 0 21.773-17.651 39.424-39.424 39.424-0.37 0-0.739-0.005-1.108-0.015l0.054 0.001zM433.142 802.118c-98.301 0-172.5 0.172-231.722-6.542-59.136-6.714-106.478-20.744-140.307-54.66-33.914-33.914-47.859-81.171-54.487-140.307-6.628-59.221-6.542-133.421-6.542-231.55s-0.086-172.415 6.714-231.55c6.8-59.221 21.003-106.478 54.918-140.307 34.001-33.914 81.258-48.032 140.307-54.66 59.136-6.714 133.249-6.542 231.119-6.542s171.898 0 231.034 6.714c59.050 6.714 106.478 20.831 140.307 54.746 34.001 33.829 48.032 81.171 54.831 140.307 6.887 59.136 6.887 133.334 6.887 231.292 0.001 0.1 0.001 0.217 0.001 0.335 0 21.821-17.689 39.51-39.51 39.51-10.93 0-20.823-4.438-27.976-11.61l-0.001-0.001c-6.975-7.12-11.281-16.878-11.281-27.643 0-0.208 0.002-0.415 0.005-0.621v0.031c0-97.871-0.344-170.951-6.283-222.339s-16.699-78.072-32.279-93.566c-15.494-15.494-42.178-26.426-93.566-32.279-51.474-5.854-124.383-6.112-222.254-6.112-97.785 0-170.778 0.258-222.254 6.025-51.389 5.854-77.987 16.613-93.566 32.107-15.494 15.494-26.426 42.178-32.279 93.566-5.854 51.474-6.198 124.469-6.198 222.598s0.172 171.209 6.025 222.598c5.681 51.474 16.527 78.072 31.849 93.566 15.494 15.494 42.178 26.167 93.566 32.021 51.474 5.854 124.554 6.025 222.856 6.025v0.086c0.55-0.027 1.194-0.043 1.842-0.043 21.773 0 39.424 17.651 39.424 39.424s-17.651 39.424-39.424 39.424c-0.648 0-1.292-0.015-1.932-0.046l0.091 0.003z" />
<glyph unicode="&#xe913;" glyph-name="arrow-left" d="M845.614 100.435c4.698-4.555 7.613-10.925 7.613-17.976s-2.915-13.421-7.606-17.971l-0.007-0.007-125.608-121.057c-10.24-9.899-26.851-9.899-36.977 0l-504.593 486.617c-4.727 4.542-7.663 10.916-7.663 17.976s2.937 13.434 7.654 17.968l0.008 0.008 504.252 486.617c4.822 4.575 11.355 7.39 18.545 7.39s13.723-2.814 18.557-7.401l-0.012 0.011 125.722-121.057c4.698-4.555 7.613-10.925 7.613-17.976s-2.915-13.421-7.606-17.971l-0.007-0.007-359.643-347.583 359.757-347.583z" />
<glyph unicode="&#xe914;" glyph-name="arrow-right" d="M178.386 100.435c-4.698-4.555-7.613-10.925-7.613-17.976s2.915-13.421 7.606-17.971l0.007-0.007 125.608-121.057c10.24-9.899 26.851-9.899 36.977 0l504.593 486.617c4.727 4.542 7.663 10.916 7.663 17.976s-2.937 13.434-7.654 17.968l-0.008 0.008-504.252 486.617c-4.822 4.575-11.355 7.39-18.545 7.39s-13.723-2.814-18.557-7.401l0.012 0.011-125.722-121.057c-4.698-4.555-7.613-10.925-7.613-17.976s2.915-13.421 7.606-17.971l0.007-0.007 359.643-347.583-359.757-347.583z" />
<glyph unicode="&#xe915;" glyph-name="calendar" d="M251.205 959.977c-6.461-0.11-12.258-2.863-16.374-7.221l-0.010-0.011c-4.082-4.266-6.595-10.064-6.595-16.448 0-0.135 0.001-0.27 0.003-0.404v0.020-52.159h-78.206c-82.814 0-150.012-68.542-150.012-152.892v-642.222c0-84.158 67.262-152.636 150.012-152.636h723.884c0.141-0.003 0.307-0.005 0.473-0.005 6.359 0 12.118 2.569 16.296 6.726l-0.001-0.001c4.337 4.342 7.019 10.338 7.019 16.96s-2.682 12.618-7.019 16.96v0c-4.183 4.193-9.967 6.788-16.358 6.788-0.144 0-0.288-0.001-0.432-0.004h-723.862c-57.726 0-103.549 46.463-103.549 105.277v642.222c0 58.878 45.759 105.405 103.549 105.405h78.27v-89.214c-0.192-6.4 2.24-12.544 6.592-17.088 4.201-4.381 10.103-7.104 16.64-7.104s12.439 2.723 16.632 7.096l0.008 0.008c4.085 4.267 6.6 10.067 6.6 16.454 0 0.223-0.003 0.445-0.009 0.667l0.001-0.033v89.214h213.946v-89.214c0-0.020 0-0.044 0-0.068 0-12.921 10.348-23.423 23.208-23.674h0.023c6.45 0.020 12.273 2.687 16.443 6.971l0.005 0.005c4.234 4.305 6.848 10.215 6.848 16.735 0 0.012 0 0.023 0 0.035v-0.002 89.214h213.882v-89.214c-0.128-6.4 2.24-12.544 6.656-17.088 4.201-4.381 10.103-7.104 16.64-7.104s12.439 2.723 16.632 7.096l0.008 0.008c4.123 4.302 6.661 10.152 6.661 16.594 0 0.174-0.002 0.347-0.006 0.52v-0.026 89.214h78.206c57.726 0 103.549-46.591 103.549-105.405v-642.222c-0.128-6.4 2.176-12.544 6.592-17.088 4.201-4.381 10.103-7.104 16.64-7.104s12.439 2.723 16.632 7.096l0.008 0.008c4.123 4.312 6.661 10.169 6.661 16.619 0 0.165-0.002 0.329-0.005 0.493v-0.025 642.222c0 84.286-67.39 152.828-150.076 152.828h-78.27v52.159c0.003 0.135 0.004 0.293 0.004 0.452 0 6.498-2.59 12.392-6.793 16.705l0.005-0.005c-4.207 4.282-10.059 6.935-16.53 6.935-12.795 0-23.167-10.373-23.167-23.167 0-0.323 0.007-0.645 0.020-0.965l-0.001 0.046v-52.159h-214.010v52.159c0.002 0.123 0.004 0.268 0.004 0.413 0 6.522-2.615 12.433-6.855 16.742l0.003-0.003c-4.207 4.282-10.059 6.935-16.53 6.935-12.795 0-23.167-10.373-23.167-23.167 0-0.323 0.007-0.645 0.020-0.965l-0.001 0.046v-52.159h-213.882v52.159c0.003 0.135 0.004 0.293 0.004 0.452 0 6.498-2.59 12.392-6.793 16.705l0.005-0.005c-4.195 4.269-10.030 6.914-16.482 6.914-0.1 0-0.201-0.001-0.301-0.002h0.015zM232.646 583.667c-11.263-0.035-21.433-4.683-28.727-12.152l-0.008-0.008c-7.421-7.538-12.003-17.89-12.003-29.311s4.582-21.773 12.008-29.316l-0.005 0.005c7.324-7.471 17.521-12.102 28.799-12.102s21.475 4.631 28.793 12.095l0.006 0.007c7.421 7.538 12.003 17.89 12.003 29.311s-4.582 21.773-12.008 29.316l0.005-0.005c-7.32 7.486-17.515 12.136-28.794 12.16h-0.005zM418.881 583.667c-11.285-0.024-21.479-4.674-28.792-12.152l-0.007-0.008c-7.376-7.558-11.926-17.904-11.926-29.311s4.55-21.753 11.935-29.32l-0.008 0.009c7.332-7.455 17.526-12.075 28.799-12.075s21.467 4.62 28.794 12.069l0.005 0.006c7.421 7.538 12.003 17.89 12.003 29.311s-4.582 21.773-12.008 29.316l0.005-0.005c-7.32 7.486-17.515 12.136-28.794 12.16h-0.005zM605.051 583.667c-11.285-0.024-21.479-4.674-28.792-12.152l-0.007-0.008c-7.376-7.558-11.926-17.904-11.926-29.311s4.55-21.753 11.935-29.32l-0.008 0.009c7.332-7.455 17.526-12.075 28.799-12.075s21.467 4.62 28.794 12.069l0.005 0.006c7.421 7.538 12.003 17.89 12.003 29.311s-4.582 21.773-12.008 29.316l0.005-0.005c-7.32 7.486-17.515 12.136-28.794 12.16h-0.005zM791.222 583.667c-11.285-0.024-21.479-4.674-28.792-12.152l-0.007-0.008c-7.376-7.558-11.926-17.904-11.926-29.311s4.55-21.753 11.935-29.32l-0.008 0.009c7.332-7.455 17.526-12.075 28.799-12.075s21.467 4.62 28.794 12.069l0.005 0.006c7.421 7.538 12.003 17.89 12.003 29.311s-4.582 21.773-12.008 29.316l0.005-0.005c-7.32 7.486-17.515 12.136-28.794 12.16h-0.005zM232.71 417.784c-11.287-0.016-21.483-4.668-28.791-12.152l-0.008-0.008c-7.362-7.527-11.904-17.839-11.904-29.21 0-0.035 0-0.071 0-0.106v0.005c0-22.847 18.24-41.407 40.767-41.407 22.463 0 40.703 18.559 40.703 41.407 0 0.033 0 0.073 0 0.113 0 11.389-4.542 21.716-11.912 29.271l0.008-0.009c-7.32 7.486-17.515 12.136-28.794 12.16h-0.005zM418.881 417.784c-11.285-0.024-21.479-4.674-28.792-12.152l-0.007-0.008c-7.391-7.553-11.956-17.898-11.968-29.309v-0.002c0-22.847 18.24-41.407 40.767-41.407 22.463 0 40.703 18.559 40.703 41.407 0 0.033 0 0.073 0 0.113 0 11.389-4.542 21.716-11.912 29.271l0.008-0.009c-7.32 7.486-17.515 12.136-28.794 12.16h-0.005zM605.051 417.784c-11.285-0.024-21.479-4.674-28.792-12.152l-0.007-0.008c-7.391-7.553-11.956-17.898-11.968-29.309v-0.002c0-22.847 18.24-41.407 40.767-41.407 22.463 0 40.703 18.559 40.703 41.407 0 0.033 0 0.073 0 0.113 0 11.389-4.542 21.716-11.912 29.271l0.008-0.009c-7.32 7.486-17.515 12.136-28.794 12.16h-0.005zM791.222 417.784c-11.285-0.024-21.479-4.674-28.792-12.152l-0.007-0.008c-7.391-7.553-11.956-17.898-11.968-29.309v-0.002c0-22.847 18.24-41.407 40.767-41.407 22.463 0 40.703 18.559 40.703 41.407 0 0.033 0 0.073 0 0.113 0 11.389-4.542 21.716-11.912 29.271l0.008-0.009c-7.32 7.486-17.515 12.136-28.794 12.16h-0.005zM232.71 251.964c-22.554-0.18-40.769-18.505-40.769-41.086 0-0.158 0.001-0.316 0.003-0.473v0.024c0-10.944 4.288-21.503 11.968-29.247 7.324-7.471 17.521-12.102 28.799-12.102s21.475 4.631 28.793 12.095l0.006 0.007c7.362 7.527 11.904 17.839 11.904 29.21 0 0.013 0 0.026 0 0.039v-0.002c0.002 0.134 0.002 0.292 0.002 0.45 0 22.557-18.179 40.869-40.685 41.085h-0.020zM418.881 251.964c-22.554-0.18-40.769-18.505-40.769-41.086 0-0.158 0.001-0.316 0.003-0.473v0.024c0-10.944 4.352-21.503 11.968-29.247 7.332-7.455 17.526-12.075 28.799-12.075s21.467 4.62 28.794 12.069l0.005 0.006c7.362 7.527 11.904 17.839 11.904 29.21 0 0.013 0 0.026 0 0.039v-0.002c0.002 0.134 0.002 0.292 0.002 0.45 0 22.557-18.179 40.869-40.685 41.085h-0.020zM605.051 251.964c-22.554-0.18-40.769-18.505-40.769-41.086 0-0.158 0.001-0.316 0.003-0.473v0.024c0-10.944 4.352-21.503 11.968-29.247 7.332-7.455 17.526-12.075 28.799-12.075s21.467 4.62 28.794 12.069l0.005 0.006c7.362 7.527 11.904 17.839 11.904 29.21 0 0.013 0 0.026 0 0.039v-0.002c0.002 0.134 0.002 0.292 0.002 0.45 0 22.557-18.179 40.869-40.685 41.085h-0.020zM791.222 251.964c-22.554-0.18-40.769-18.505-40.769-41.086 0-0.158 0.001-0.316 0.003-0.473v0.024c0-10.944 4.352-21.503 11.968-29.247 7.332-7.455 17.526-12.075 28.799-12.075s21.467 4.62 28.794 12.069l0.005 0.006c7.362 7.527 11.904 17.839 11.904 29.21 0 0.013 0 0.026 0 0.039v-0.002c0.002 0.134 0.002 0.292 0.002 0.45 0 22.557-18.179 40.869-40.685 41.085h-0.020z" />
<glyph unicode="&#xe916;" glyph-name="envelope" d="M887.492 768.002h-750.984c-75.067 0-136.508-57.6-136.508-128.001v-384.002c0-70.4 61.44-128.001 136.508-128.001h750.984c75.067 0 136.508 57.6 136.508 128.001v384.002c0 70.4-61.44 128.001-136.508 128.001zM955.706 640.001v-384.002c0-6.4-1.147-12.8-3.387-18.107l-262.782 246.401 266.241 160.001v-4.293zM887.492 704.001c10.24 0 20.48-2.107 29.573-6.4l-349.309-210.108c-15.765-9.541-34.811-15.179-55.173-15.179s-39.408 5.645-55.659 15.457l0.486-0.266-350.535 210.108c8.612 4.043 18.699 6.401 29.335 6.401 0.086 0 0.172 0 0.259-0.001h750.968zM71.676 237.892c-2.141 5.196-3.392 11.229-3.392 17.559 0 0.191 0.002 0.381 0.006 0.581v-0.023 388.223l266.241-160.001-262.854-246.401zM136.503 191.999c-5.699 0-10.24 1.093-14.72 2.107l271.814 254.908 26.179-16c26.301-16.059 58.116-25.581 92.16-25.581s65.859 9.508 92.941 26.021l-0.781-0.45 26.24 16 271.868-254.908c-4.613-1.021-9.147-2.107-14.779-2.107h-750.91z" />
<glyph unicode="&#xe917;" glyph-name="phone" d="M986.793 260.904l-90.435 90.435c-22.801 21.833-53.789 35.273-87.919 35.273s-65.118-13.44-87.965-35.316l0.046 0.044-50.934-50.849c-8.308-8.397-19.833-13.597-32.574-13.597-9.957 0-19.173 3.176-26.689 8.571l0.137-0.094c-48.034 35.833-93.251 75.078-135.482 117.481-41.472 41.317-79.952 85.56-115.134 132.421l-2.262 3.146c-5.301 7.379-8.478 16.594-8.478 26.551 0 12.739 5.2 24.265 13.593 32.57l51.279 51.279c22.533 22.502 36.472 53.603 36.472 87.962s-13.939 65.46-36.471 87.96l-0.002 0.002-89.667 88.899c-22.516 22.467-53.594 36.359-87.919 36.359s-65.403-13.892-87.921-36.361l-112.019-112.104c-22.457-22.655-36.334-53.847-36.334-88.281 0-16.757 3.286-32.746 9.249-47.358l-0.302 0.838c69.542-171.932 167.763-318.728 290.109-441.461l-0.033 0.033c122.808-122.34 269.714-220.59 432.967-286.995l8.802-3.166c13.833-5.785 29.906-9.145 46.765-9.145 34.365 0 65.469 13.964 87.947 36.528l111.939 112.025c22.446 22.526 36.324 53.601 36.324 87.919s-13.877 65.393-36.327 87.923l0.004-0.004-0.853 0.427z" />
<glyph unicode="&#xe918;" glyph-name="plus-rounded-circle" d="M512-64c-0.162 0-0.354 0-0.546 0-282.468 0-511.454 228.986-511.454 511.454 0 0.192 0 0.384 0 0.576v-0.030c0 283.17 228.83 512 512 512s512-228.83 512-512-228.83-512-512-512zM512 38.4c225.69 0 409.6 183.91 409.6 409.6s-183.91 409.6-409.6 409.6c-226.060-0.388-409.212-183.541-409.6-409.563v-0.037c0-225.69 183.91-409.6 409.6-409.6zM563.2 499.2h102.4c27.153-1.446 48.623-23.816 48.623-51.2s-21.47-49.754-48.495-51.195l-0.128-0.005h-102.4v-102.4c-1.446-27.153-23.816-48.623-51.2-48.623s-49.754 21.47-51.195 48.495l-0.005 0.128v102.4h-102.4c-27.153 1.446-48.623 23.816-48.623 51.2s21.47 49.754 48.495 51.195l0.128 0.005h102.4v102.4c1.446 27.153 23.816 48.623 51.2 48.623s49.754-21.47 51.195-48.495l0.005-0.128v-102.4z" />
<glyph unicode="&#xe919;" glyph-name="minus-rounded-circle" d="M512-64c-0.162 0-0.354 0-0.546 0-282.468 0-511.454 228.986-511.454 511.454 0 0.192 0 0.384 0 0.576v-0.030c0 283.17 228.83 512 512 512s512-228.83 512-512-228.83-512-512-512zM512 38.4c225.69 0 409.6 183.91 409.6 409.6s-183.91 409.6-409.6 409.6c-226.060-0.388-409.212-183.541-409.6-409.563v-0.037c0-225.69 183.91-409.6 409.6-409.6zM716.8 448c0-28.194-22.938-51.2-51.2-51.2h-307.2c-27.153 1.446-48.623 23.816-48.623 51.2s21.47 49.754 48.495 51.195l0.128 0.005h307.2c28.194 0 51.2-23.006 51.2-51.2z" />
<glyph unicode="&#xe91a;" glyph-name="check" d="M864.235 850.095h-31.9l-435.87-436.004-203.862 203.728h-31.765l-160.838-159.364v-31.9l380.649-380.649h31.631l611.719 611.585v31.765z" />
<glyph unicode="&#xe91b;" glyph-name="star-solid" d="M786.778 335.225l220.875 181.722c31.205 25.842 15.067 76.404-25.842 78.501l-284.505 17.309c-17.586 1.111-32.323 12.233-38.655 27.689l-0.108 0.298-104.587 266.561c-6.71 16.647-22.731 28.183-41.445 28.183s-34.735-11.535-41.338-27.884l-0.107-0.299-104.538-265.586c-6.46-15.747-21.216-26.855-38.685-27.932l-0.127-0.007-285.528-17.261c-40.908-2.146-57.047-52.659-25.842-78.501l220.875-180.65c12.921-10.727 19.406-29.011 15.115-45.15l-72.211-276.362c-0.876-3.294-1.379-7.076-1.379-10.975 0-24.505 19.865-44.37 44.37-44.37 8.836 0 17.068 2.583 23.983 7.034l-0.175-0.106 240.281 153.784c6.646 4.538 14.855 7.246 23.696 7.246s17.051-2.708 23.843-7.34l-0.147 0.094 241.305-153.784c6.74-4.345 14.972-6.928 23.808-6.928 24.505 0 44.37 19.865 44.37 44.37 0 3.9-0.503 7.681-1.448 11.284l0.069-0.309-72.162 275.338c-0.602 2.734-0.947 5.876-0.947 9.096 0 14.166 6.668 26.774 17.036 34.858l0.098 0.074z" />
<glyph unicode="&#xe91c;" glyph-name="profile-outline" d="M914.286-17.481c0.005-0.264 0.009-0.575 0.009-0.887 0-24.876-19.901-45.103-44.65-45.631l-0.049-0.001c-24.798 0.528-44.699 20.756-44.699 45.631 0 0.312 0.003 0.623 0.009 0.934l-0.001-0.046c0 179.931-140.142 325.851-312.905 325.851s-312.905-145.92-312.905-325.851c0.006-0.265 0.009-0.576 0.009-0.889 0-24.85-19.86-45.061-44.573-45.629l-0.053-0.001c-24.83 0.488-44.772 20.732-44.772 45.633 0 0.312 0.003 0.622 0.009 0.932l-0.001-0.046c0 231.424 180.078 418.962 402.286 418.962s402.286-187.538 402.286-418.962zM512 448c-135.753 0-245.833 114.615-245.833 256s110.080 256 245.833 256c135.753 0 245.833-114.615 245.833-256s-110.080-256-245.833-256zM512 541.111c86.455 0 156.453 72.923 156.453 162.889s-69.998 162.889-156.453 162.889-156.453-72.923-156.453-162.889 69.998-162.889 156.453-162.889z" />
<glyph unicode="&#xe91d;" glyph-name="plus-rounded-square" d="M906.67 959.927h-564.278c-64.609 0-117.404-52.721-117.404-117.404v-107.583h-107.583c-64.609 0-117.404-52.721-117.404-117.33v-564.205c0-64.609 52.795-117.404 117.404-117.404h564.205c64.609 0 117.33 52.795 117.33 117.404v107.657h107.657c64.609 0 117.404 52.721 117.404 117.404v564.13c0 64.683-52.721 117.404-117.404 117.404zM732.188 54.29c0-28.059-22.669-50.58-50.58-50.58h-563.245c-0.022 0-0.047 0-0.074 0-27.894 0-50.506 22.612-50.506 50.506 0 0.026 0 0.052 0 0.078v-0.004 564.278c0 28.059 22.669 50.58 50.58 50.58h564.278c28.059 0 50.58-22.595 50.58-50.58v-564.278h-1.034zM957.25 278.318c0-28.059-22.595-50.654-50.58-50.654h-107.731v390.904c0 64.609-52.721 117.404-117.33 117.404h-389.87v107.657c0 28.059 22.669 50.58 50.654 50.58h564.205c28.059 0 50.654-22.595 50.654-50.58v-565.312zM577.126 369.805h-143.248v143.248c-0.124 18.382-14.993 33.251-33.364 33.376h-0.012c-18.382-0.124-33.251-14.993-33.376-33.364v-143.26h-144.281c-18.382-0.124-33.251-14.993-33.376-33.364v-0.012c0-18.312 15.063-33.376 33.376-33.376h143.248v-143.248c0-18.312 15.063-33.376 33.376-33.376 18.414 0.083 33.324 14.967 33.449 33.364v0.012l-0.147 143.174h144.281c18.408 0.125 33.292 15.035 33.376 33.441v0.008c-0.125 18.367-15.002 33.218-33.368 33.301h-0.008z" />
<glyph unicode="&#xe91e;" glyph-name="edit-square" d="M858.863 960c-0.005 0-0.011 0-0.017 0-44.786 0-85.394-17.89-115.067-46.914l0.030 0.029-164.133-166.473h-451.803c-70.363 0-127.854-57.563-127.854-128v-554.642c0-70.437 57.49-128 127.854-128h554.057c70.363 0 127.927 57.563 127.927 128v452.242l166.181 166.4c29.613 29.422 47.942 70.17 47.942 115.2s-18.329 85.778-47.934 115.191l-0.009 0.009c-30.413 29.047-71.703 46.932-117.17 46.958h-0.005zM724.573 64c-0.042-23.534-19.108-42.601-42.638-42.642h-554.061c-23.534 0.042-42.601 19.108-42.642 42.638v554.646c0 23.552 19.163 42.715 42.642 42.715h366.592l-147.017-147.163c-85.285-85.358-134.363-200.558-132.169-322.194 0-23.479 19.163-42.642 42.642-42.642 0.607-0.003 1.326-0.005 2.045-0.005 124.845 0 237.887 50.53 319.791 132.255l147.009 147.155v-364.763h-2.194zM914.305 742.4l-398.629-398.921c-57.563-57.563-134.29-95.963-215.333-104.448 10.993 84.629 48.778 158.886 104.429 215.534l-0.054-0.055 398.555 398.921c31.963 29.842 80.969 25.6 110.738-4.242 27.794-32.11 27.794-76.946 0.146-106.789z" />
<glyph unicode="&#xe91f;" glyph-name="trash-bucket" d="M175.177 677.083c-14.889-0.041-26.948-12.1-26.99-26.986v-582.074c0-72.704 59.246-132.023 132.096-132.023h463.433c72.777 0 132.096 59.246 132.096 132.023v582.070c-1.289 13.862-12.864 24.628-26.953 24.628s-25.664-10.767-26.945-24.521l-0.008-0.107v-582.070c0-43.081-35.109-78.117-78.19-78.117h-463.433c-43.141 0.041-78.106 34.982-78.19 78.109v582.078c-0.041 14.864-12.059 26.907-26.909 26.99h-0.008zM997.083 784.823h-296.448v79.506c0 52.517-43.154 95.671-95.744 95.671h-185.856c-52.517 0-95.671-43.154-95.671-95.671v-79.506h-296.448c-13.862-1.289-24.628-12.864-24.628-26.953s10.767-25.664 24.521-26.945l0.107-0.008h970.166c13.862 1.289 24.628 12.864 24.628 26.953s-10.767 25.664-24.521 26.945l-0.107 0.008zM646.729 784.823h-269.458v79.506c0 22.894 18.798 41.765 41.765 41.765h184.613c22.894 0 41.765-18.798 41.765-41.765v-79.506h1.317zM538.916 151.552v417.646c-1.471 13.688-12.96 24.253-26.917 24.253s-25.446-10.565-26.906-24.133l-0.010-0.119v-417.646c1.471-13.688 12.96-24.253 26.917-24.253s25.446 10.565 26.906 24.133l0.010 0.119zM404.187 151.552v417.646c-1.289 13.862-12.864 24.628-26.953 24.628s-25.664-10.767-26.945-24.521l-0.008-0.107v-417.646c1.289-13.862 12.864-24.628 26.953-24.628s25.664 10.767 26.945 24.521l0.008 0.107zM673.645 151.552v417.646c-1.471 13.688-12.96 24.253-26.917 24.253s-25.446-10.565-26.906-24.133l-0.010-0.119v-417.646c1.289-13.862 12.864-24.628 26.953-24.628s25.664 10.767 26.945 24.521l0.008 0.107z" />
<glyph unicode="&#xe920;" glyph-name="brain" d="M1003.074 449.431c-0.057 11.261-1.172 22.226-3.253 32.846l0.179-1.102-0.513 3.124c-1.25 5.774-2.469 10.323-3.863 14.795l0.33-1.227-1.587 4.916c-1.385 4.239-2.582 7.412-3.886 10.528l0.353-0.954-1.741 4.302c-2.264 5.255-4.271 9.342-6.431 13.332l0.441-0.889-1.997 3.584c-2.204 3.96-4.154 7.121-6.217 10.199l0.33-0.521-2.048 3.071c-3.147 4.588-6.057 8.457-9.114 12.203v-0.018c-3.34 3.994-6.603 7.58-10.004 11.029l0.020-0.021-1.587 1.587c-7.112 7.041-14.859 13.473-23.137 19.186l-0.569 0.372c-0.513 0.41-1.127 0.768-1.689 1.127-3.14 2.159-6.919 4.497-10.803 6.671l-0.768 0.394-2.048 1.127-1.893 1.074c10.721 20.807 17.004 45.408 17.004 71.475 0 87.481-70.773 158.432-158.188 158.718h-0.027c-14.202 74.211-78.552 129.548-155.844 129.638h-0.010c-37.684 0-74.036-13.619-102.502-37.836-27.435 23.466-63.318 37.77-102.539 37.836h-0.014c-77.366-0.031-141.781-55.448-155.747-128.751l-0.158-0.991c-87.44-0.287-158.215-71.237-158.215-158.718 0-26.068 6.285-50.669 17.421-72.368l-0.417 0.893-1.843-1.024c-5.491-2.982-9.941-5.696-14.256-8.596l0.638 0.404-1.689-1.178c-8.841-6.105-16.587-12.535-23.724-19.578l0.020 0.020-1.638-1.537c-3.43-3.584-6.809-7.168-9.933-11.008l-0.255-0.308c-2.808-3.422-5.751-7.309-8.547-11.306l-0.413-0.624-1.997-3.071c-2.048-3.124-4.044-6.4-5.836-9.729-0.665-1.178-1.383-2.252-2.048-3.533-2.1-4.044-4.148-8.192-5.99-12.441-0.614-1.383-1.127-2.816-1.689-4.249-0.844-1.946-2.026-5.119-3.116-8.332l-0.367-1.242c-0.513-1.689-1.127-3.329-1.587-4.967-1.332-4.454-2.56-8.96-3.533-13.568l-0.564-3.071c-0.952-4.491-1.784-10.087-2.309-15.772l-0.045-0.612c-0.445-4.606-0.696-9.957-0.696-15.366 0-61.324 32.522-115.052 81.26-144.877l0.743-0.423c-11.308-21.276-17.95-46.523-17.95-73.318 0-85.652 67.846-155.458 152.728-158.609l0.287-0.008c10.534-77.14 75.914-135.972 155.068-136.141h0.018c46.591 0 88.013 14.233 118.835 40.244 30.874-26.009 72.244-40.244 118.784-40.244 79.252 0.094 144.721 58.978 155.148 135.379l0.092 0.813c85.17 3.159 153.015 72.965 153.015 158.617 0 26.797-6.64 52.042-18.365 74.18l0.417-0.862c49.489 30.221 82.023 83.938 82.023 145.254 0 0.018 0 0.037 0 0.055v-0.002zM492.25 706.71c-14.592-10.394-37.939-14.233-61.952-9.779-31.744 5.887-57.088 24.065-67.788 48.641-3.106 7.026-10.015 11.84-18.047 11.84-10.865 0-19.676-8.808-19.676-19.676 0-2.833 0.599-5.526 1.677-7.96l-0.049 0.125c15.871-36.607 52.020-63.385 96.769-71.68 8.96-1.689 17.921-2.51 26.623-2.51 15.105 0 29.593 2.51 42.496 7.168v-651.622c-24.166-23.193-59.085-35.892-99.175-35.892-64.545 0.088-116.862 52.315-117.094 116.817v0.021l0.051 0.205c0 30.72 11.622 57.242 33.536 76.902 21.505 19.25 51.199 29.849 83.558 29.849 10.887 0 19.713 8.826 19.713 19.713s-8.826 19.713-19.713 19.713v0c-18.125 0-35.634-2.765-52.071-7.833 1.307 7.601 2.053 16.357 2.053 25.288 0 24.65-5.688 47.97-15.824 68.722l0.41-0.926c-3.266 6.618-9.968 11.092-17.716 11.092-10.877 0-19.693-8.816-19.693-19.693 0-3.13 0.729-6.090 2.030-8.717l-0.051 0.115c7.299-14.882 11.565-32.391 11.565-50.895 0-17.827-3.96-34.728-11.051-49.871l0.304 0.722c-29.814-22.347-50.218-55.844-55.021-94.191l-0.070-0.683c-63.41 2.952-113.714 55.027-113.818 118.876v0.010c0 25.19 7.782 49.255 22.528 69.633l14.336 19.814-22.425 9.779c-46.515 20.61-78.378 66.372-78.378 119.578 0 4.228 0.201 8.408 0.595 12.533l-0.041-0.527 0.46 4.044c0.856 7.398 2.278 14.079 4.257 20.514l-0.213-0.801c0.359 1.332 0.665 2.662 1.074 3.943 1.127 3.481 2.356 6.86 3.789 10.239 0.513 1.279 1.178 2.51 1.689 3.738 1.989 4.393 3.783 7.87 5.721 11.253l-0.345-0.655c1.279 2.252 2.611 4.454 4.097 6.655l1.893 2.97c4.454 6.451 9.42 12.494 14.9 18.022l1.229 1.127c5.218 5.093 10.869 9.801 16.871 14.044l0.435 0.293 1.638 1.178c6.554 4.352 13.465 8.141 20.736 11.263 1.127 0.513 2.252 0.922 3.43 1.383 14.9 5.94 31.13 9.319 48.128 9.319 43.879 0 81.204-21.505 104.602-59.596-24.89-13.036-45.464-31.202-60.926-53.219l-0.361-0.54c-1.923-2.989-3.063-6.64-3.063-10.555 0-10.887 8.826-19.713 19.713-19.713 6.363 0 12.022 3.015 15.625 7.693l0.035 0.047c23.726 33.827 62.542 55.665 106.462 55.665 6.043 0 11.989-0.413 17.811-1.213l-0.675 0.076c0.406-0.029 0.878-0.047 1.355-0.047 10.887 0 19.713 8.826 19.713 19.713 0 9.555-6.798 17.521-15.82 19.328l-0.127 0.021c-6.636 0.917-14.303 1.439-22.092 1.439-14.276 0-28.14-1.757-41.391-5.066l1.172 0.248c-30.106 53.504-82.124 85.043-141.978 85.043-14.132 0-27.852-1.946-40.96-5.171-9.469 16.6-15.052 36.479-15.052 57.662 0 0.014 0 0.029 0 0.043v-0.002c0.076 65.828 53.457 119.161 119.295 119.161 5.125 0 10.175-0.324 15.13-0.95l-0.589 0.060 20.89-2.611 1.178 20.992c3.746 62.771 55.565 112.256 118.944 112.256 32.179 0 61.38-12.757 82.818-33.491l-0.033 0.031v-180.531zM885.263 329.828l-22.478-9.779 14.336-19.865c14.797-20.378 22.528-44.442 22.528-69.633-0.127-63.757-50.316-115.752-113.342-118.775l-0.271-0.010c-5.121 41.268-26.573 78.848-59.34 104.294 13.414 18.636 22.887 40.244 27.033 63.488 0.166 0.959 0.259 2.063 0.259 3.19 0 10.887-8.826 19.713-19.713 19.713-9.571 0-17.548-6.821-19.336-15.865l-0.021-0.125c-8.871-46.991-44.643-83.692-90.404-93.807l-0.782-0.144c-9.013-1.929-15.672-9.824-15.672-19.278 0-10.875 8.816-19.691 19.691-19.691 1.424 0 2.812 0.15 4.148 0.437l-0.129-0.023c26.196 5.661 49.089 17.248 68.067 33.314l-0.226-0.187c29.318-21.526 48.157-55.838 48.231-94.556v-0.115c-0.117-64.611-52.478-116.955-117.086-117.043h-0.008c-40.090 0-74.956 12.698-99.122 35.892v380.416c8.96-0.308 20.223-0.614 32.154-0.614 15.309 0 31.436 0.513 44.799 1.946 4.097-17.921 10.394-34.56 18.944-46.336 3.635-4.957 9.438-8.139 15.982-8.139 4.343 0 8.358 1.4 11.62 3.775l-0.057-0.039c4.934 3.627 8.1 9.409 8.1 15.93 0 4.345-1.406 8.362-3.789 11.62l0.039-0.057c-16.998 23.449-20.992 80.537-13.517 99.175 0.895 2.166 1.414 4.684 1.414 7.322 0 10.862-8.804 19.666-19.666 19.666-8.223 0-15.269-5.049-18.205-12.213l-0.047-0.131c-5.017-12.494-6.963-31.335-6.041-51.609-18.74-1.893-48.179-1.689-71.68-0.87v455.988c21.393 20.647 50.556 33.366 82.688 33.366 57.367 0 105.265-40.544 116.6-94.542l0.137-0.776c-33.142-8.525-61.248-26.598-82.038-51.076l-0.187-0.226c-2.876-3.399-4.623-7.831-4.623-12.671 0-10.867 8.81-19.677 19.677-19.677 6.026 0 11.419 2.709 15.029 6.975l0.023 0.029c21.955 26.027 54.586 42.446 91.053 42.446 0.047 0 0.094 0 0.142 0h-0.008c65.783-0.088 119.085-53.407 119.143-119.188v-0.006c0-20.428-5.222-40.090-15.001-57.702-12.283 3.249-26.393 5.132-40.936 5.171h-0.023c-27.647 0-54.426-6.655-78.593-19.354-16.179 15.36-35.43 27.596-57.088 35.738-1.778 0.583-3.828 0.92-5.953 0.92-10.887 0-19.713-8.826-19.713-19.713 0-8.040 4.813-14.957 11.716-18.022l0.125-0.051c44.932-17.166 77.425-57.367 83.242-105.776l0.060-0.618c1.217-9.818 9.508-17.345 19.559-17.345 10.879 0 19.699 8.82 19.699 19.699 0 0.831-0.051 1.648-0.15 2.451l0.010-0.096c-3.284 26.965-12.441 51.267-26.153 72.335l0.4-0.655c15.493 7.051 33.6 11.162 52.668 11.162 17.4 0 34-3.422 49.165-9.631l-0.866 0.314 3.43-1.332c7.27-3.175 14.182-6.963 20.686-11.263l1.638-1.178c2.714-1.893 5.427-3.89 7.987-5.99l1.792-1.484c2.611-2.202 5.121-4.506 7.578-6.913l1.127-1.127c5.53-5.53 10.497-11.571 14.951-18.022l1.946-2.97c1.433-2.151 2.765-4.403 4.097-6.655l2.048-3.84c1.178-2.202 2.252-4.454 3.276-6.759 0.614-1.229 1.229-2.457 1.689-3.738 1.383-3.379 2.611-6.759 3.738-10.239l1.127-3.89c0.996-3.173 1.973-7.207 2.716-11.322l0.099-0.659 1.178-7.782c0.154-1.332 0.359-2.611 0.46-3.994 0.355-3.608 0.558-7.8 0.558-12.039 0-53.196-31.865-98.951-77.55-119.217l-0.831-0.33z" />
<glyph unicode="&#xe921;" glyph-name="smile-sfwse" d="M877.055 707.362c-0.033 0-0.071 0-0.11 0-81.168 0-146.974-65.785-147.005-146.947v-0.002c0-29.472 23.892-53.364 53.364-53.364s53.364 23.892 53.364 53.364v0c0 22.258 18.045 40.303 40.303 40.303s40.303-18.045 40.303-40.303v0c0.949-28.743 24.477-51.684 53.364-51.684s52.417 22.941 53.361 51.597l0.002 0.087c-0.125 81.149-65.86 146.903-146.991 147.059h-0.015v-0.054zM146.949 707.362c-81.12-0.094-146.858-65.829-146.949-146.941v-0.008c0.949-28.743 24.477-51.684 53.364-51.684s52.417 22.941 53.361 51.597l0.002 0.087c0 22.258 18.045 40.303 40.303 40.303s40.303-18.045 40.303-40.303v0c0.949-28.743 24.477-51.684 53.364-51.684s52.417 22.941 53.361 51.597l0.002 0.087c0 81.189-65.816 147.005-147.005 147.005-0.037 0-0.077 0-0.114 0h0.006zM691.031 404.446c-0.037 0-0.081 0-0.125 0-23.75 0-43.877-15.506-50.812-36.948l-0.106-0.377c-3.661-9.728-30.766-71.536-128.096-71.536s-124.325 61.918-128.096 71.536c-6.165 23.209-26.985 40.030-51.736 40.030-29.518 0-53.447-23.929-53.447-53.447 0-7.033 1.359-13.747 3.828-19.898l-0.127 0.36c1.913-6.011 48.801-145.638 229.524-145.638 180.777 0 227.72 139.627 229.414 145.584 1.748 5.056 2.76 10.881 2.76 16.942 0 29.362-23.702 53.189-53.016 53.391h-0.019z" />
<glyph unicode="&#xe922;" glyph-name="smile-confused" d="M512 960c-282.418 0-512-229.582-512-512s229.582-512 512-512 512 229.582 512 512-229.582 512-512 512zM512 10.372c-241.622 0.184-437.445 196.007-437.628 437.61v0.018c0.184 241.622 196.007 437.445 437.61 437.628h0.018c241.622-0.184 437.445-196.007 437.628-437.61v-0.018c-0.184-241.622-196.007-437.445-437.61-437.628h-0.018zM309.386 456.601l36.604 36.668 36.604-36.668c6.633-6.604 15.769-10.697 25.861-10.735h0.007c8.601 0 19.401 3.234 25.868 10.735 6.518 6.869 10.526 16.176 10.526 26.418s-4.009 19.549-10.542 26.435l0.016-0.017-36.668 36.604 36.668 36.668c6.499 6.866 10.496 16.159 10.496 26.386s-3.996 19.52-10.512 26.404l0.016-0.018c-6.869 6.518-16.176 10.526-26.418 10.526s-19.549-4.009-26.435-10.542l0.017 0.016-35.44-36.604-36.668 36.668c-6.866 6.499-16.159 10.496-26.386 10.496s-19.52-3.996-26.404-10.512l0.018 0.016c-6.518-6.869-10.526-16.176-10.526-26.418s4.009-19.549 10.542-26.435l-0.016 0.017 36.604-36.604-36.604-36.604c-6.518-6.869-10.526-16.176-10.526-26.418s4.009-19.549 10.542-26.435l-0.016 0.017c6.625-6.627 15.761-10.743 25.857-10.8h0.011c8.537 0 19.337 4.268 26.838 10.735zM767.45 635.546c-6.869 6.518-16.176 10.526-26.418 10.526s-19.549-4.009-26.435-10.542l0.017 0.016-36.668-36.668-36.604 36.668c-6.866 6.499-16.159 10.496-26.386 10.496s-19.52-3.996-26.404-10.512l0.018 0.016c-6.518-6.869-10.526-16.176-10.526-26.418s4.009-19.549 10.542-26.435l-0.016 0.017 36.604-36.604-36.604-36.668c-6.499-6.866-10.496-16.159-10.496-26.386s3.996-19.52 10.512-26.404l-0.016 0.018c6.625-6.627 15.761-10.743 25.857-10.8h0.011c8.601 0 19.401 3.234 25.868 10.8l36.539 36.604 36.668-36.604c6.625-6.627 15.761-10.743 25.857-10.8h0.011c9.701 0 19.401 3.234 25.868 10.8 6.499 6.866 10.496 16.159 10.496 26.386s-3.996 19.52-10.512 26.404l0.016-0.018-36.668 36.668 36.604 36.604c7.682 6.722 12.506 16.545 12.506 27.493 0 9.851-3.906 18.79-10.252 25.353l0.010-0.010zM721.081 310.057c-21.535 18.302-62.537 18.302-84.072 0l-35.569-29.102c-2.134-1.099-9.701-1.099-10.8-1.099l-36.604 30.201c-21.6 18.302-62.537 18.302-84.072 0l-35.569-29.102c-2.199-1.099-9.701-1.099-11.899-1.099l-36.668 30.201c-21.535 18.302-62.472 18.302-84.072 0l-22.635-18.367c-12.934-9.701-14.034-28.003-4.268-40.937 9.701-12.934 28.003-14.034 40.937-4.333l21.535 17.267c2.199 1.099 9.701 1.099 10.8 1.099l36.604-30.137c21.6-18.367 62.537-18.367 84.072 0l35.569 29.102c2.199 1.035 9.701 1.035 11.899 1.035l36.668-30.201c10.735-8.601 26.903-12.934 42.036-12.934 15.068 0 31.236 4.333 42.036 12.934l36.668 30.201c2.134 1.099 9.701 1.099 11.835 1.099l22.635-18.367c12.934-9.701 31.301-8.601 41.001 4.333s8.666 31.236-4.268 40.937l-23.799 17.267z" />
<glyph unicode="&#xe923;" glyph-name="plus-circle" d="M422.344-64v424.919h-421.658v177.423h421.658v421.658h179.483v-421.658h421.486v-177.423h-421.312v-424.919z" />
<glyph unicode="&#xe924;" glyph-name="github" d="M342.494 143.267c0 4.682-5.286 8.003-11.553 7.399-6.040 0-10.722-3.323-10.722-7.399 0-4.757 4.757-8.080 11.553-7.475 6.040 0 10.722 3.323 10.722 7.475zM278.314 152.554c-1.51-4.153 2.642-8.909 8.834-10.118 5.436-2.114 11.628 0 12.836 4.077 1.208 4.153-2.719 8.909-8.909 10.797-5.286 1.435-11.326-0.679-12.836-4.757zM369.599 156.027c-6.040-1.435-10.118-5.361-9.514-10.118 0.604-4.153 5.965-6.795 12.156-5.361 6.040 1.51 10.118 5.361 9.514 9.514-0.604 3.926-6.192 6.569-12.156 6.040zM505.433 947.172c-286.467 0-505.432-217.455-505.432-503.695 0-228.932 144.139-424.868 349.967-493.804 26.426-4.757 35.714 11.553 35.714 24.917l-0.604 126.849-9.363-1.661c-30.957-4.757-130.246-14.195-161.582 53.004l-5.588 14.044c-5.286 12.307-23.407 50.589-48.172 67.351l-7.551 4.304s-41.905 28.692-4.682 31.561l7.928 0.227s44.774-3.549 73.769-44.019l5.965-9.212c45.152-79.734 120.959-56.78 150.481-43.189 4.757 33.072 18.121 55.95 32.996 69.616l-41.754 5.059c-100.12 14.346-190.046 48.474-190.046 222.966 0 56.78 15.705 85.321 48.701 121.563l-2.492 7.022c-6.569 20.538-16.913 70.749 7.853 133.191 43.189 13.439 142.478-55.723 142.478-55.723 38.808 11.17 83.384 17.593 129.459 17.593 0.064 0 0.128 0 0.192 0h-0.010c44.019 0 88.341-6.040 129.643-17.593l13.062 8.607c28.314 18.121 95.892 57.761 129.416 47.115 28.314-71.579 10.722-126.697 5.361-140.138 33.072-36.544 53.306-65.086 53.306-121.563 0-199.334-121.639-215.19-237.086-228.177 19.027-16.31 35.11-47.266 35.11-95.816l-0.604-172.605c0-13.439 9.514-29.749 35.714-24.917 206.506 68.483 346.417 264.419 346.417 493.351 0 286.391-232.254 503.771-518.569 503.771zM200.695 235.157c-2.719-2.114-2.114-6.795 1.435-10.797 3.323-3.323 8.080-4.757 10.722-2.038 2.719 2.038 2.038 6.795-1.435 10.722-3.323 3.323-8.080 4.757-10.722 2.038zM178.42 251.769c-1.51-2.642 0.604-5.89 4.682-8.003 3.323-2.038 7.475-1.435 8.909 1.51 1.51 2.642-0.604 5.965-4.757 8.003-4.153 1.208-7.399 0.604-8.834-1.51zM245.242 178.302c-3.246-2.642-2.038-8.834 2.719-12.836 4.757-4.682 10.722-5.286 13.439-1.963 2.642 2.642 1.435 8.834-2.719 12.836-4.53 4.682-10.722 5.286-13.439 1.963zM221.76 208.654c3.246 2.719 8.683 0.679 11.553-4.077 3.323-4.757 3.323-10.118 0-12.836-2.719-2.038-8.305 0-11.553 4.757-3.323 4.757-3.323 10.118 0 12.156z" />
<glyph unicode="&#xe925;" glyph-name="linkedin" d="M229.207-62.397v683.615h-212.324v-683.615h212.324zM122.963 714.507c67.877 0 122.88 56.258 122.88 124.134-1.789 66.518-56.138 119.758-122.922 119.758s-121.133-53.241-122.919-119.593l-0.003-0.166c0-67.877 55.087-124.134 122.88-124.134zM1024-62.397h-212.073l-0.084 353.008c-0.919 75.316-10.617 160.831-110.341 160.831-105.744 0-125.639-79.161-127.143-164.175l-0.084-349.665h-212.073v683.615h203.63v-93.205h2.926c28.422 53.666 97.635 110.341 200.871 110.341 208.562 0 251.863-133.245 254.287-309.123l0.084-391.628z" />
<glyph unicode="&#xe926;" glyph-name="behance" d="M412.46 481.353c56.564 27.047 86.016 67.942 86.016 131.527 0 125.546-93.428 156.103-201.354 156.103h-297.122v-630.005h305.445c114.428 0 222.029 54.939 222.029 182.89 0 79.125-37.514 137.639-115.078 159.484zM138.484 661.447h130.032c49.932 0 94.923-14.044 94.923-71.973 0-53.573-35.043-75.029-84.456-75.029h-140.499v147.001zM286.59 245.995h-148.106v173.463h150.967c60.92 0 99.474-25.356 99.474-89.917 0-63.651-45.966-83.546-102.335-83.546zM923.94 673.865v62.090h-255.513v-62.090h255.513zM1024 360.488c0 134.908-78.929 247.451-222.029 247.451-139.068 0-233.407-104.546-233.407-241.404 0-142.060 89.397-239.519 233.407-239.519 108.966 0 179.509 49.087 213.512 153.438h-110.593c-11.898-38.944-60.985-59.555-99.019-59.555-73.468 0-112.022 43.041-112.022 116.118h329.11c0.521 7.477 1.040 15.474 1.040 23.406zM694.044 415.946c4.096 59.88 43.885 97.393 104.025 97.393 62.935 0 94.533-36.994 99.864-97.393h-203.89z" />
<glyph unicode="&#xe927;" glyph-name="dribble" d="M512 918.916c-259.953-0.316-470.601-210.964-470.916-470.885v-0.031c0.316-259.953 210.964-470.601 470.885-470.916h0.031c259.953 0.316 470.601 210.964 470.916 470.885v0.031c-0.316 259.953-210.964 470.601-470.885 470.916h-0.031zM823.397 701.757c55.849-67.668 90.002-155.048 90.835-250.382l0.001-0.182-21.389 4.027c-45.14 7.778-151.671 22.362-258.758 8.889-13.993 34.737-25.84 60.75-38.538 86.265l3.258-7.236c148.754 60.765 216.117 147.157 224.66 158.616zM778.674 748.285l-5-6.597c-17.987-22.917-80.002-91.53-205.839-138.685l-16.598 29.723c-45.886 79.994-90.008 147.159-137.628 211.581l4.152-5.881c28.326 7.145 60.845 11.245 94.32 11.245 102.524 0 196.066-38.457 266.988-101.733l-0.395 0.346zM340.953 811.413l28.612-40.418c29.376-42.64 76.113-113.198 120.559-192.228-188.2-50.001-353.899-49.237-371.886-49.029 27.165 125.507 109.766 227.493 220.293 280.625l2.421 1.049zM109.697 447.374l0.278 12.292h27.431c63.474 0.902 222.715 8.403 385.983 57.224 11.459-22.5 22.5-45.348 32.639-68.266-145.491-40.973-277.647-158.546-342.858-270.146-64.185 70.773-103.475 165.154-103.475 268.71 0 0.066 0 0.132 0 0.197v-0.010zM265.118 130.004c42.015 85.975 156.046 196.811 318.204 252.091 34.741-86.489 64.471-188.822 84.231-294.663l1.605-10.346c-46.331-20.229-100.315-31.999-157.049-31.999-93.54 0-179.608 31.997-247.855 85.641l0.865-0.655zM736.729 113.962l-6.528 34.723c-20.581 98.579-45.243 182.993-75.617 264.628l4.086-12.537c125.976 20.139 236.743-12.917 250.493-17.223-18.761-112.829-82.146-208.087-171.043-268.695l-1.394-0.896z" />
</font>
</defs>
</svg>
